<?xml version="1.0" standalone="no"?>
<!DOCTYPE svg PUBLIC "-//W3C//DTD SVG 20010904//EN"
 "http://www.w3.org/TR/2001/REC-SVG-20010904/DTD/svg10.dtd">
<svg version="1.0" xmlns="http://www.w3.org/2000/svg"
 width="512.000000pt" height="512.000000pt" viewBox="0 0 512.000000 512.000000"
 preserveAspectRatio="xMidYMid meet">
<g transform="translate(0.000000,512.000000) scale(0.100000,-0.100000)"
fill="#000000" stroke="none">
<path d="M1845 5081 c-92 -43 -125 -108 -125 -250 l0 -100 -662 -3 -663 -3
-50 -23 c-65 -30 -122 -85 -151 -147 l-24 -50 0 -1062 0 -1061 -45 -26 c-24
-15 -56 -41 -69 -59 -57 -74 -56 -63 -56 -777 0 -628 1 -659 19 -681 26 -32
86 -32 112 0 18 22 19 53 19 673 0 704 -1 691 55 716 20 9 571 12 2356 12
2535 0 2370 4 2397 -55 9 -19 12 -263 12 -986 l0 -961 -29 -29 -29 -29 -2352
0 -2352 0 -29 29 -29 29 0 189 c0 177 -1 191 -20 211 -28 30 -82 30 -110 0
-19 -20 -20 -34 -20 -217 0 -185 1 -199 24 -246 28 -59 76 -108 128 -129 33
-14 289 -16 2408 -16 2119 0 2375 2 2408 16 52 21 100 70 128 129 l24 50 0
976 c0 1062 2 1020 -56 1096 -13 18 -45 44 -69 59 l-45 26 0 1061 0 1062 -24
50 c-29 62 -86 117 -151 147 l-50 23 -662 3 -663 3 0 100 c0 142 -33 207 -125
250 -38 17 -79 19 -715 19 -636 0 -677 -2 -715 -19z m1383 -147 c20 -14 22
-23 22 -110 l0 -94 -690 0 -690 0 0 94 c0 87 2 96 22 110 20 14 100 16 668 16
568 0 648 -2 668 -16z m1510 -382 c66 -48 62 24 62 -1122 l0 -1040 -610 0
-610 0 0 353 0 354 23 12 c36 20 58 58 70 122 10 50 15 59 33 59 15 0 26 -10
34 -31 25 -60 56 -69 233 -69 256 0 252 -5 252 345 0 351 4 345 -254 345
l-160 0 -36 -31 c-19 -17 -38 -42 -41 -55 -10 -38 -45 -31 -69 14 -37 69 -53
72 -370 72 -315 0 -374 -8 -490 -64 -150 -71 -264 -184 -335 -331 -44 -91 -57
-136 -69 -232 -15 -126 21 -173 132 -173 68 0 82 6 145 66 45 44 158 107 214
120 29 6 26 10 43 -71 6 -30 59 -92 86 -100 18 -6 19 -19 19 -356 l0 -349
-620 0 -620 0 0 143 c0 224 40 346 160 497 102 127 150 252 150 395 0 192
-100 377 -262 485 -79 52 -131 55 -177 9 l-31 -31 0 -214 c0 -249 13 -227
-130 -222 l-85 3 -5 210 c-5 219 -9 239 -52 269 -44 31 -98 21 -175 -33 -86
-61 -142 -125 -188 -216 -61 -121 -78 -248 -50 -379 20 -96 61 -178 139 -280
126 -166 156 -258 156 -488 l0 -148 -465 0 -465 0 0 1040 c0 1113 -2 1068 48
1113 11 10 33 22 48 27 16 5 987 8 2159 7 l2130 -2 33 -23z m-3468 -966 c0
-163 1 -175 23 -206 36 -54 75 -71 180 -77 180 -11 252 13 295 97 20 40 22 58
22 203 0 122 3 158 13 155 25 -9 106 -122 129 -181 18 -50 23 -81 23 -162 0
-91 -3 -106 -31 -165 -17 -36 -57 -96 -88 -135 -69 -86 -128 -196 -157 -295
-17 -61 -23 -109 -26 -252 l-5 -178 -124 0 -124 0 0 158 c0 123 -5 175 -20
242 -27 110 -85 226 -160 320 -77 96 -109 161 -123 249 -13 87 0 167 41 255
30 61 99 146 120 146 9 0 12 -49 12 -174z m2276 109 c25 -53 64 -70 161 -70
93 0 126 16 153 73 l15 32 98 0 97 0 0 -195 0 -195 -100 0 c-85 0 -100 2 -100
16 0 9 -15 31 -34 50 -34 34 -35 34 -125 34 -142 0 -171 -23 -181 -140 l-5
-65 -222 -3 -222 -2 -7 37 c-14 78 -53 123 -125 145 -75 22 -230 -35 -341
-126 -65 -53 -68 -50 -37 50 26 86 36 105 92 179 50 66 115 120 193 159 98 49
140 55 416 55 l257 1 17 -35z m-116 -960 l0 -345 -120 0 -120 0 0 345 0 345
120 0 120 0 0 -345z" fill="#0D86FF"/>
<path d="M589 4360 c-24 -13 -44 -34 -58 -63 -21 -44 -21 -46 -19 -881 l3
-838 24 -19 c30 -25 72 -24 99 1 l22 21 0 824 0 825 1900 0 1900 0 0 -825 0
-824 22 -21 c27 -25 69 -26 99 -1 l24 19 3 838 c2 835 2 837 -19 881 -14 30
-33 50 -60 63 -38 20 -68 20 -1971 20 -1889 -1 -1934 -1 -1969 -20z" fill="#0D86FF"/>
<path d="M1901 1949 c-127 -25 -211 -129 -211 -261 1 -104 54 -192 145 -241
40 -22 42 -22 725 -22 683 0 685 0 725 22 92 50 144 137 145 244 0 111 -54
194 -160 243 -44 21 -58 21 -685 23 -352 0 -660 -3 -684 -8z m1291 -149 c103
-29 121 -167 28 -215 -43 -22 -1277 -22 -1320 0 -41 21 -60 53 -60 101 0 51
36 99 83 113 45 13 1222 14 1269 1z" fill="#0D86FF"/>
</g>
</svg>