<?xml version="1.0" standalone="no"?>
<!DOCTYPE svg PUBLIC "-//W3C//DTD SVG 20010904//EN"
 "http://www.w3.org/TR/2001/REC-SVG-20010904/DTD/svg10.dtd">
<svg version="1.0" xmlns="http://www.w3.org/2000/svg"
 width="512.000000pt" height="512.000000pt" viewBox="0 0 512.000000 512.000000"
 preserveAspectRatio="xMidYMid meet">
<g transform="translate(0.000000,512.000000) scale(0.100000,-0.100000)"
fill="#000000" stroke="none">
<path d="M2397 4944 c-143 -26 -304 -104 -417 -202 l-45 -39 59 -56 58 -57 46
41 c62 54 156 106 250 137 67 23 94 26 212 26 118 0 145 -3 212 -26 94 -31
188 -83 250 -137 l46 -41 58 57 59 56 -40 35 c-203 178 -480 255 -748 206z" fill="#0D86FF"/>
<path d="M2445 4628 c-88 -16 -275 -121 -275 -154 0 -7 100 -104 107 -104 2 0
19 11 37 25 17 13 59 37 91 52 52 24 72 28 155 28 83 0 103 -4 155 -28 32 -15
74 -39 91 -52 18 -14 35 -25 37 -25 9 0 107 98 107 107 0 13 -88 77 -149 108
-98 49 -236 66 -356 43z" fill="#0D86FF"/>
<path d="M2484 4308 c-17 -6 -44 -20 -60 -33 l-29 -23 50 -53 c28 -31 57 -52
65 -50 8 2 31 4 50 4 19 0 42 -2 50 -4 8 -2 36 19 64 49 47 50 48 53 31 72
-38 42 -150 61 -221 38z" fill="#0D86FF"/>
<path d="M640 3987 c-49 -16 -133 -102 -148 -153 -9 -31 -12 -216 -12 -721 l0
-679 -51 -49 c-28 -28 -63 -70 -77 -95 l-27 -45 -5 -410 c-6 -478 3 -439 -129
-570 -45 -44 -81 -82 -81 -86 0 -9 101 -109 110 -109 4 0 48 43 99 95 67 70
101 114 124 163 l32 67 5 407 5 408 241 241 c254 254 266 263 344 251 43 -6
106 -68 112 -111 11 -76 3 -88 -172 -266 -92 -93 -176 -186 -186 -205 -16 -30
-19 -62 -22 -213 l-4 -178 94 -98 c106 -111 157 -191 195 -306 23 -72 26 -101
32 -295 4 -120 12 -227 18 -241 7 -15 26 -43 44 -64 l32 -36 -79 -80 c-114
-116 -128 -122 -309 -129 -142 -6 -155 -8 -218 -38 -50 -23 -92 -55 -165 -126
l-97 -95 57 -58 58 -58 87 87 c121 119 127 121 308 128 208 8 239 23 414 195
l128 125 1163 0 1163 0 128 -125 c175 -172 206 -187 414 -195 181 -7 187 -9
308 -128 l87 -87 58 58 57 58 -97 95 c-73 71 -115 103 -165 126 -63 30 -76 32
-218 38 -181 7 -195 13 -309 129 l-79 80 32 36 c18 21 37 49 44 64 6 14 14
121 18 241 6 194 9 223 32 295 38 116 90 197 195 307 l94 97 -4 178 c-3 150
-6 183 -22 213 -10 19 -92 110 -183 201 -130 132 -166 174 -173 203 -24 109
67 200 177 176 30 -7 79 -52 277 -249 l241 -241 5 -408 5 -407 32 -67 c23 -49
57 -93 124 -163 51 -52 95 -95 99 -95 9 0 110 100 110 109 0 4 -36 42 -81 86
-132 131 -123 92 -129 570 l-5 410 -27 45 c-14 25 -49 67 -77 95 l-51 49 0
679 c0 496 -3 690 -12 719 -6 22 -31 62 -55 88 -78 87 106 80 -2017 79 -1341
-1 -1891 -4 -1916 -12z m3815 -172 l25 -24 0 -598 0 -598 -80 80 -80 80 0 462
0 463 -1760 0 -1760 0 0 -463 0 -462 -80 -80 -80 -80 0 598 0 598 25 24 24 25
1871 0 1871 0 24 -25z m-295 -624 l0 -329 -72 1 c-127 2 -224 -57 -280 -170
-26 -54 -32 -77 -32 -132 0 -113 28 -158 219 -351 l165 -167 0 -123 c0 -101
-3 -127 -17 -142 -15 -17 -78 -18 -1581 -18 -1443 0 -1567 1 -1584 17 -16 14
-18 33 -18 141 l0 125 165 167 c192 194 218 236 218 351 0 57 -6 80 -32 133
-54 111 -152 171 -278 170 l-73 -1 0 329 0 328 1600 0 1600 0 0 -329z m-2560
-1831 l0 -240 -159 0 -158 0 -7 70 c-13 125 -55 256 -115 358 l-30 52 234 0
235 0 0 -240z m880 0 l0 -240 -360 0 -360 0 0 240 0 240 360 0 360 0 0 -240z
m880 0 l0 -240 -360 0 -360 0 0 240 0 240 360 0 360 0 0 -240z m604 198 c-59
-93 -107 -242 -120 -370 l-7 -68 -158 0 -159 0 0 240 0 240 235 0 235 0 -26
-42z m-124 -653 c0 -46 -4 -60 -25 -80 l-24 -25 -1231 0 -1231 0 -24 25 c-21
20 -25 34 -25 80 l0 55 1280 0 1280 0 0 -55z" fill="#0D86FF"/>
<path d="M2420 3346 c-216 -46 -404 -189 -499 -378 -61 -123 -76 -190 -75
-338 1 -107 5 -137 27 -205 38 -115 90 -198 182 -290 131 -131 277 -199 454
-212 434 -30 796 330 767 765 -6 107 -43 228 -97 320 -49 82 -180 211 -262
257 -148 82 -343 113 -497 81z m246 -157 c96 -17 213 -79 286 -152 112 -112
163 -235 163 -397 0 -160 -51 -285 -161 -394 -109 -110 -234 -161 -394 -161
-162 0 -285 51 -397 163 -236 236 -209 632 58 834 131 100 284 136 445 107z" fill="#0D86FF"/>
<path d="M2364 3050 c-49 -11 -90 -46 -108 -90 -13 -34 -16 -86 -16 -323 0
-253 2 -286 19 -323 25 -55 77 -86 141 -86 46 0 65 9 266 133 119 74 231 148
249 164 18 17 38 49 45 73 17 55 0 115 -45 157 -48 45 -455 292 -490 297 -16
3 -44 2 -61 -2z m238 -280 c106 -66 193 -125 193 -130 0 -8 -377 -250 -390
-250 -3 0 -5 113 -5 250 0 138 2 250 5 250 3 0 92 -54 197 -120z" fill="#0D86FF"/>
</g>
</svg>