<?xml version="1.0" encoding="utf-8"?>
<svg version="1.1" xmlns="http://www.w3.org/2000/svg" width="512" height="512" fill="#0D86FF">
	<path
		d="M0 0 C1.57612931 -0.00599161 3.15225571 -0.0127986 4.7283783 -0.02035522 C8.99312006 -0.03796055 13.25778147 -0.04270836 17.52255607 -0.0439868 C20.19281385 -0.04541234 22.86305146 -0.04968962 25.53330421 -0.05498123 C34.86564038 -0.07346519 44.19791957 -0.08165411 53.53027344 -0.08007812 C62.20194223 -0.07887798 70.87336162 -0.09995962 79.54496735 -0.13156545 C87.01194852 -0.1578018 94.47884861 -0.16844231 101.94587547 -0.16716731 C106.39577091 -0.16665973 110.84544466 -0.17222898 115.29529381 -0.19352341 C119.48563905 -0.21302972 123.67555399 -0.2129466 127.8659153 -0.19849014 C129.39401002 -0.19641603 130.92213257 -0.20101844 132.45018005 -0.21321106 C147.16848288 -0.32293857 160.12393837 2.19195927 170.9597168 12.78955078 C176.89362149 19.11337346 180.98709111 26.58422665 185.30200195 34.04052734 C186.54915353 36.17314046 187.79954309 38.30383173 189.05023193 40.43437195 C189.90242098 41.88624014 190.75369461 43.33864603 191.60406494 44.7915802 C195.96538293 52.23563509 200.436239 59.61156794 204.92700195 66.97802734 C205.64562795 68.15801676 206.3642163 69.33802911 207.08276367 70.51806641 C208.33020593 72.56597869 209.57830184 74.61349315 210.82739258 76.66040039 C212.42700195 79.29052734 212.42700195 79.29052734 213.59777832 81.91567993 C215.25499788 84.60252446 215.25499788 84.60252446 218.48510742 84.91630554 C220.37060303 84.91724968 220.37060303 84.91724968 222.29418945 84.91821289 C222.98896896 84.92548401 223.68374847 84.93275513 224.39958191 84.94024658 C226.70090347 84.958873 229.0006788 84.94274857 231.30200195 84.92724609 C232.90805443 84.93528943 234.51409625 84.94580939 236.12011719 84.95869446 C240.35749891 84.98729665 244.59439254 84.98781479 248.83184814 84.98083496 C255.58495528 84.97352898 262.33790165 85.00516497 269.09088135 85.04328346 C271.43660068 85.05204842 273.78196771 85.0468633 276.12768555 85.03971863 C290.29730559 85.04503157 302.01994676 86.0361388 312.73950195 96.10302734 C318.39127036 102.05877533 321.52974921 108.62802597 321.57417297 116.87355042 C321.58490593 118.24628868 321.58490593 118.24628868 321.59585571 119.64675903 C321.59988907 121.14213699 321.59988907 121.14213699 321.60400391 122.66772461 C321.6138607 124.25143608 321.6138607 124.25143608 321.62391663 125.86714172 C321.64363703 129.36373976 321.65531108 132.86029481 321.6652832 136.35693359 C321.66935873 137.5531175 321.67343426 138.74930141 321.67763329 139.98173332 C321.69849122 146.3161896 321.71279272 152.65062424 321.72216797 158.98510742 C321.73321619 165.5127839 321.76759907 172.04011799 321.80733967 178.56767368 C321.83354858 183.59932569 321.84186376 188.63089675 321.84544945 193.66261101 C321.85030632 196.06783288 321.86189447 198.47305135 321.88048744 200.87820625 C321.90496318 204.25493192 321.90389775 207.63078023 321.89697266 211.00756836 C321.90978271 211.99031738 321.92259277 212.97306641 321.93579102 213.9855957 C321.87815886 221.74504046 320.30422233 229.14199794 315.81577778 235.61367607 C313.97905691 239.15393686 314.01206206 242.33427058 314.04846191 246.22746277 C314.04166672 247.41772653 314.04166672 247.41772653 314.03473425 248.63203603 C314.02311704 251.28814256 314.03275459 253.94374482 314.04223633 256.59985352 C314.03813078 258.50552699 314.03267 260.41119795 314.0259552 262.31686401 C314.0142277 266.42019287 314.01174687 270.52338721 314.01631165 274.62672997 C314.02312058 281.11990089 314.00725328 287.61289489 313.98791504 294.10603333 C313.95004211 307.89668844 313.93726382 321.68732821 313.92700195 335.47802734 C313.91592595 350.34925327 313.90051552 365.22039771 313.85628939 380.09156781 C313.83796522 386.54081988 313.83402967 392.98986979 313.84122467 399.43914163 C313.84275084 403.46034893 313.83193495 407.48145595 313.8178463 411.50263596 C313.81385699 413.36093962 313.81494579 415.21926255 313.82161903 417.07755852 C313.8689844 431.37077435 313.17117886 442.2318117 302.7980957 452.97802734 C295.06085455 460.1587616 286.37099264 462.41071612 276.01769829 462.42474842 C274.90725885 462.42827677 274.90725885 462.42827677 273.77438629 462.43187639 C271.28608938 462.43854973 268.79784489 462.43810867 266.30953979 462.43769836 C264.51052557 462.44099802 262.71151209 462.4447238 260.91249955 462.44883984 C255.96254417 462.45885627 251.01260092 462.46257606 246.06263685 462.46522915 C240.72639927 462.46913321 235.39017128 462.47871142 230.05393982 462.48744202 C217.16450005 462.50720263 204.2750595 462.51727172 191.38560838 462.52616981 C185.31620589 462.53055301 179.24680429 462.5359197 173.1774025 462.54115868 C153.00263843 462.55816988 132.82787492 462.5726645 112.65310478 462.57990742 C107.41790644 462.58181732 102.18270809 462.58373765 96.94750977 462.58569336 C95.64632403 462.5861771 94.3451383 462.58666084 93.0045227 462.58715924 C71.9216686 462.59546125 50.8388712 462.62080158 29.75604187 462.65327404 C8.11270181 462.68633819 -13.53060942 462.70435556 -35.17397487 462.70755166 C-47.32674417 462.70971725 -59.47943075 462.71847329 -71.63217545 462.74401283 C-81.98089373 462.76571091 -92.3295092 462.77377457 -102.67824765 462.76404605 C-107.95757019 462.75949893 -113.23668055 462.76141179 -118.51597404 462.7808075 C-123.35224317 462.79842202 -128.18814505 462.79745519 -133.02441798 462.7819102 C-134.77075593 462.77953156 -136.5171192 462.78387096 -138.26341845 462.79573885 C-150.07081104 462.87098952 -161.05089959 462.11980829 -170.57299805 454.29052734 C-178.00232184 446.94692652 -182.33651751 440.32664415 -182.69490337 429.66342068 C-182.69863009 428.23130138 -182.69690222 426.79916149 -182.69084167 425.36705017 C-182.69154626 424.57495213 -182.69225084 423.78285408 -182.69297677 422.96675307 C-182.69428401 420.31545996 -182.68861423 417.66422648 -182.68310547 415.01293945 C-182.68286328 413.11051432 -182.68314071 411.20808906 -182.68389893 409.30566406 C-182.68500485 405.2089237 -182.683573 401.11219456 -182.68053246 397.01545525 C-182.67689756 390.53018235 -182.68604442 384.04496773 -182.69831848 377.55970764 C-182.70034041 376.46441095 -182.70236234 375.36911425 -182.70444554 374.24062675 C-182.70861422 372.00083091 -182.71281698 369.76103512 -182.71705306 367.5212394 C-182.74517746 352.42550225 -182.76534442 337.3298914 -182.74804688 322.23413086 C-182.73647119 312.04853897 -182.74613312 301.86320889 -182.78010446 291.67766386 C-182.7972242 286.29150793 -182.80360127 280.90582437 -182.78398705 275.51966667 C-182.76568457 270.44769601 -182.77548601 265.37653709 -182.8062439 260.30463409 C-182.81258072 258.45039799 -182.80882689 256.59609355 -182.79384804 254.74190712 C-182.72040928 244.91629017 -182.96499321 237.30852444 -188.18945789 228.63173771 C-190.35277193 224.97100316 -190.69758007 221.90039956 -190.72016907 217.70077515 C-190.72732437 216.78417114 -190.73447968 215.86756714 -190.74185181 214.92318726 C-190.74454071 213.92469757 -190.74722961 212.92620789 -190.75 211.89746094 C-190.7565712 210.840047 -190.7631424 209.78263306 -190.76991272 208.69317627 C-190.78963144 205.19177172 -190.80130616 201.69041007 -190.8112793 198.18896484 C-190.81535482 196.99153278 -190.81943035 195.79410072 -190.82362938 194.56038284 C-190.84448556 188.22059553 -190.85878841 181.88082982 -190.86816406 175.54101562 C-190.87921819 169.004273 -190.91360841 162.46787174 -190.95333576 155.93124962 C-190.97952763 150.89534894 -190.98785829 145.85952923 -190.99144554 140.82356644 C-190.996306 138.41472701 -191.00790445 136.00589106 -191.02648354 133.59711838 C-191.05092523 130.21779382 -191.04990012 126.83934749 -191.04296875 123.45996094 C-191.05577881 122.47361664 -191.06858887 121.48727234 -191.08178711 120.47103882 C-191.00898989 110.6842212 -188.0221648 103.06047458 -181.2878418 95.97021484 C-174.4937253 89.31538547 -167.11908686 85.79661242 -157.57299805 85.29052734 C-153.71753804 85.39773325 -149.87227386 85.6145359 -146.02250671 85.84124756 C-111.63117666 89.66281456 -111.63117666 89.66281456 -79.55981445 81.55810547 C-72.35696127 75.14922407 -69.62795355 65.68666343 -67.03588867 56.69726562 C-65.0121238 50.05894599 -61.23308703 44.46450456 -57.47045898 38.69351196 C-55.68354262 35.92469456 -54.00466997 33.09144475 -52.30737305 30.26708984 C-43.63227393 16.19155323 -35.0614602 4.80831381 -18.21504784 0.71828842 C-12.21124328 -0.25375757 -6.0683083 -0.0046103 0 0 Z M-29.57299805 28.29052734 C-32.8838953 33.141963 -35.79441136 38.18845475 -38.69799805 43.29052734 C-39.52494222 44.71934457 -40.35349076 46.14723439 -41.18359375 47.57421875 C-42.43847253 49.73151775 -43.69245687 51.88926028 -44.9410553 54.05020142 C-49.33348057 61.64485131 -53.92812057 69.10912744 -58.55981445 76.56005859 C-59.09396973 77.42759766 -59.628125 78.29513672 -60.1784668 79.18896484 C-60.64406006 79.93839355 -61.10965332 80.68782227 -61.58935547 81.45996094 C-62.73077672 83.2378036 -62.73077672 83.2378036 -62.57299805 85.29052734 C-56.41851512 87.10448021 -50.53080278 88.25044115 -44.57299805 85.29052734 C-37.98625233 78.33989561 -33.76579489 69.22125625 -29.39868164 60.77441406 C-27.07706895 56.34416358 -24.54143227 52.08839037 -21.88549805 47.85302734 C-21.52391602 47.24136719 -21.16233398 46.62970703 -20.78979492 45.99951172 C-18.12401173 41.63322894 -14.75934889 37.39043146 -9.76025867 35.66478348 C-7.01086766 35.19434276 -4.38688409 35.15788793 -1.59635925 35.15008545 C0.23941429 35.14152023 0.23941429 35.14152023 2.11227417 35.13278198 C3.46563711 35.13153672 4.81900016 35.1304116 6.17236328 35.12939453 C7.60000232 35.12476435 9.02764012 35.11973941 10.45527649 35.11434937 C14.33141861 35.10124296 18.20754342 35.09478389 22.08370423 35.09033871 C24.50664327 35.08740524 26.9295776 35.08329992 29.35251427 35.07883453 C36.93707533 35.06516445 44.52162561 35.05549531 52.10619813 35.05163264 C60.85460445 35.04715246 69.60285448 35.02960444 78.35121328 35.00063205 C85.11822955 34.97900101 91.8852019 34.96892761 98.65225238 34.96759152 C102.69174537 34.96654455 106.73109135 34.96065959 110.77054787 34.94277191 C114.57171357 34.92626648 118.37262214 34.9241476 122.17381096 34.93291092 C123.56574315 34.93367997 124.95768931 34.92935602 126.34958649 34.91945267 C140.97173504 34.82155067 140.97173504 34.82155067 147.12646484 39.61376953 C152.15914827 45.73945559 155.94369843 52.67847218 159.86450195 59.54052734 C160.5961962 60.81308141 161.32861394 62.08521976 162.06176758 63.35693359 C162.42135056 63.98082474 162.78093353 64.60471588 163.15141296 65.24751282 C164.22265957 67.09632648 165.30521055 68.93815353 166.38916016 70.77954102 C167.72026097 73.04403592 168.96425239 75.31137015 170.18945312 77.6394043 C172.92275593 82.93809818 172.92275593 82.93809818 177.65869141 86.140625 C180.15709029 86.37496956 182.37354087 86.26505993 184.86450195 85.97802734 C185.69143555 85.92839844 186.51836914 85.87876953 187.37036133 85.82763672 C189.39307986 85.69902456 191.41123014 85.50170344 193.42700195 85.29052734 C191.97289986 81.36264536 190.12609228 77.87585489 188.00512695 74.26708984 C187.66849533 73.69236938 187.33186371 73.11764893 186.98503113 72.5255127 C185.88647275 70.65305883 184.78237718 68.7839642 183.67700195 66.91552734 C183.29939728 66.2761322 182.9217926 65.63673706 182.53274536 64.97796631 C180.58933032 61.68797376 178.64190991 58.4003955 176.69116211 55.11474609 C175.24684123 52.67985217 173.81082706 50.2404922 172.38549805 47.79443359 C170.55804918 44.66033317 168.71356305 41.53691123 166.86450195 38.41552734 C166.33050781 37.49078613 165.79651367 36.56604492 165.24633789 35.61328125 C160.43194976 27.57286457 155.32974275 21.8557138 146.27963924 18.93261528 C140.35039143 17.59802623 134.27544283 17.8750976 128.2277832 17.90234375 C126.70412827 17.89827235 125.18047629 17.89292729 123.65682983 17.88641357 C119.54111285 17.87280165 115.42562287 17.87801314 111.30990219 17.88755083 C106.98996141 17.89517932 102.67003925 17.888093 98.35009766 17.88339233 C91.09737684 17.87794404 83.84474787 17.88510203 76.59204102 17.89941406 C68.22306489 17.91573881 59.85430807 17.91044964 51.48533726 17.89393485 C44.28250796 17.88029353 37.07974444 17.87841322 29.87690639 17.88625085 C25.58258409 17.89091286 21.28836465 17.89159295 16.99404907 17.88164139 C12.95558093 17.87293538 8.91739383 17.87905949 4.87895584 17.89632416 C3.4024057 17.90026969 1.92583166 17.89918833 0.44929123 17.89253616 C-11.64873358 17.84308283 -21.38901118 18.6946946 -29.57299805 28.29052734 Z M-7.28343201 56.66055298 C-8.08240209 58.18566123 -8.84950728 59.72819912 -9.57299805 61.29052734 C-10.22187988 62.31919922 -10.87076172 63.34787109 -11.53930664 64.40771484 C-13.34449317 67.36727755 -15.14897626 70.32721171 -16.94799805 73.29052734 C-17.58866211 74.33853516 -18.22932617 75.38654297 -18.8894043 76.46630859 C-19.49397461 77.46017578 -20.09854492 78.45404297 -20.72143555 79.47802734 C-21.26977051 80.37908203 -21.81810547 81.28013672 -22.38305664 82.20849609 C-23.65569883 84.03554733 -23.65569883 84.03554733 -23.57299805 85.29052734 C35.16700195 85.29052734 93.90700195 85.29052734 154.42700195 85.29052734 C147.58392568 73.30483812 147.58392568 73.30483812 140.48950195 61.47802734 C140.00932617 60.69105469 139.52915039 59.90408203 139.03442383 59.09326172 C136.98676388 55.49808583 136.98676388 55.49808583 134.42700195 52.29052734 C132.6568096 52.17453249 130.88199617 52.12864183 129.10810852 52.10971069 C127.95425156 52.09532959 126.80039459 52.08094849 125.61157227 52.06613159 C124.33419189 52.05558746 123.05681152 52.04504333 121.74072266 52.03417969 C120.39071831 52.01973771 119.0407173 52.00498017 117.6907196 51.9899292 C105.35325154 51.85952309 93.01486817 51.7937693 80.6768465 51.74208641 C71.55420989 51.70317886 62.4328083 51.63484498 53.31071407 51.52753866 C46.89963277 51.45466519 40.48888903 51.41624838 34.0774104 51.40306056 C30.24689862 51.39419538 26.41791214 51.36995134 22.58785439 51.30839157 C18.98151361 51.25108882 15.37748181 51.23648436 11.77075386 51.25426483 C9.82027276 51.25296955 7.86998067 51.20700792 5.92007446 51.15963745 C-0.2356688 51.23246104 -3.68767275 51.33983741 -7.28343201 56.66055298 Z M-167.72924805 108.04443359 C-168.17268555 108.64126953 -168.61612305 109.23810547 -169.07299805 109.85302734 C-169.53706055 110.45244141 -170.00112305 111.05185547 -170.47924805 111.66943359 C-172.33777504 114.4240361 -172.70255536 116.1264064 -172.72689819 119.4119873 C-172.73549866 120.27535706 -172.74409912 121.13872681 -172.75296021 122.02825928 C-172.75722015 122.97783508 -172.7614801 123.92741089 -172.76586914 124.90576172 C-172.77404663 125.90436218 -172.78222412 126.90296265 -172.79064941 127.93182373 C-172.8155367 131.24930214 -172.83203211 134.56673752 -172.84643555 137.88427734 C-172.85175922 139.01734818 -172.8570829 140.15041901 -172.8625679 141.31782532 C-172.88931982 147.32043787 -172.9086842 153.32302952 -172.9230957 159.32568359 C-172.9397066 165.51506497 -172.98444925 171.70391006 -173.03546715 177.89308929 C-173.06919897 182.65963319 -173.08067997 187.42605106 -173.08632278 192.19270325 C-173.09302374 194.47317073 -173.10821547 196.75363027 -173.13221359 199.03398132 C-173.16398049 202.23647015 -173.16388355 205.43753043 -173.15649414 208.64013672 C-173.17289948 209.57351868 -173.18930481 210.50690063 -173.20620728 211.46856689 C-173.13538236 219.01150646 -170.95582876 225.52546325 -165.8467617 231.21181488 C-158.20219507 238.51878882 -146.59216326 239.92779734 -136.65771484 242.39477539 C-135.04556087 242.79876072 -133.43350803 243.2031498 -131.82154846 243.60791016 C-127.46353508 244.70089124 -123.10407282 245.78798349 -118.74427009 246.87380195 C-114.17787815 248.01192878 -109.61268639 249.15485112 -105.0473175 250.29707336 C-97.38767181 252.21265927 -89.72708547 254.12444567 -82.06591797 256.03393555 C-73.20431923 258.24267065 -64.34420426 260.45727925 -55.48486203 262.67504662 C-46.95871712 264.80927478 -38.43158138 266.93951726 -29.90397072 269.06788063 C-26.27492435 269.97370139 -22.64622606 270.88089817 -19.01779747 271.78919029 C-14.75127091 272.85701253 -10.48388814 273.9213422 -6.21581078 274.9829483 C-4.64773893 275.37357223 -3.07996712 275.7654028 -1.51251602 276.15851021 C0.62219126 276.69366986 2.75793033 277.22449369 4.89399719 277.75419617 C6.09023366 278.05264781 7.28647013 278.35109945 8.51895618 278.65859509 C11.41961312 279.3967018 11.41961312 279.3967018 14.42700195 279.29052734 C14.65774414 278.56607422 14.88848633 277.84162109 15.1262207 277.09521484 C17.73932554 269.34885663 19.97080659 263.9117418 27.48950195 259.97802734 C32.12965523 257.80037125 36.11800427 257.16339375 41.24609375 257.12939453 C42.41798752 257.11978699 43.58988129 257.11017944 44.79728699 257.10028076 C46.06083511 257.09603088 47.32438324 257.09178101 48.6262207 257.08740234 C49.93097855 257.08170227 51.23573639 257.0760022 52.58003235 257.07012939 C55.34307238 257.05963651 58.10608349 257.05378335 60.86914062 257.05029297 C64.38825867 257.04482614 67.90698632 257.02083032 71.42598248 256.99232101 C74.80522009 256.96906764 78.18440733 256.96723612 81.5637207 256.96240234 C82.81714767 256.95005554 84.07057465 256.93770874 85.36198425 256.92498779 C94.75976978 256.94873517 102.81142858 257.87787224 109.9230957 264.47802734 C113.48794295 268.77436273 115.12415978 273.94341678 116.42700195 279.29052734 C125.46976446 277.80648868 134.33229051 275.68974588 143.22045898 273.48681641 C144.78375421 273.10193205 146.34711046 272.71729549 147.91052246 272.33288574 C153.00324815 271.07919114 158.09412921 269.81810252 163.18481445 268.55615234 C164.94631651 268.1198022 166.70782037 267.68345937 168.46932602 267.24712372 C175.79644125 265.43153197 183.1230533 263.61393176 190.44836617 261.79108047 C200.90851405 259.18823428 211.37147966 256.59744328 221.83872712 254.02329087 C229.22302198 252.20627977 236.60386817 250.37568347 243.98230636 248.53503585 C248.37953582 247.4384606 252.77802637 246.34777098 257.18030167 245.27161407 C261.31951223 244.25944229 265.45417237 243.23041553 269.58602905 242.18864441 C271.09652608 241.81085526 272.60852976 241.43902822 274.12212753 241.07386017 C284.39610409 238.59025285 294.45172379 235.71308137 300.42700195 226.29052734 C303.49353053 220.41593071 303.86258284 215.61283571 303.83105469 209.04418945 C303.83791794 208.03843369 303.84478119 207.03267792 303.85185242 205.9964447 C303.87008734 202.68677478 303.86628831 199.37758025 303.8605957 196.06787109 C303.8651583 193.76054226 303.87046411 191.45321479 303.8764801 189.14588928 C303.88540414 184.31668567 303.8829951 179.48764751 303.87304688 174.65844727 C303.86154432 168.47220966 303.88179254 162.28654177 303.91096401 156.10037899 C303.92931239 151.33826578 303.92903646 146.57628954 303.92332649 141.81414986 C303.92317319 139.5332007 303.92922513 137.25224232 303.94161797 134.97132683 C303.95650398 131.78301093 303.94586849 128.59575359 303.92871094 125.4074707 C303.93837891 124.46756287 303.94804687 123.52765503 303.95800781 122.55926514 C303.89491487 116.95704466 303.16994106 113.73335707 299.42700195 109.29052734 C293.778723 103.79490458 287.27682772 102.98759446 279.65669441 103.03605175 C278.90167595 103.03284527 278.1466575 103.02963879 277.36875969 103.02633515 C274.84237036 103.01804314 272.31621859 103.02395662 269.78982544 103.02983093 C267.95878534 103.02680989 266.1277465 103.02292064 264.2967099 103.01823837 C259.26758036 103.00794361 254.238522 103.01014396 249.20938659 103.01441896 C243.78460274 103.01688349 238.35983615 103.00787541 232.93505859 103.00038147 C222.30830211 102.98762489 211.68157089 102.98584197 201.05480804 102.98818173 C192.4180348 102.98996397 183.78126924 102.98821728 175.14449692 102.98395729 C173.91578346 102.9833621 172.68707001 102.98276691 171.42112281 102.98215369 C168.92507713 102.98094195 166.42903145 102.97972782 163.93298577 102.97851131 C141.18677583 102.96794231 118.44057963 102.96940493 95.6943688 102.97537926 C74.93579612 102.98073649 54.17726593 102.97280571 33.41870117 102.9543457 C10.09237456 102.93364562 -13.23392554 102.92293392 -36.56026185 102.92692119 C-48.90965465 102.9288348 -61.25900876 102.92633008 -73.60839462 102.91220665 C-84.12143875 102.90030513 -94.63442036 102.89887418 -105.14746533 102.91099682 C-110.51157542 102.91689409 -115.87557108 102.91796143 -121.23967361 102.90599442 C-126.1509611 102.89516491 -131.06203821 102.89820408 -135.97331573 102.9122561 C-137.74916324 102.91491111 -139.52502709 102.91251133 -141.3008586 102.90452024 C-155.31809302 102.42464572 -155.31809302 102.42464572 -167.72924805 108.04443359 Z M-164.57299805 253.29052734 C-164.64306913 276.39519868 -164.69597693 299.49985251 -164.72843456 322.60460854 C-164.74390555 333.33247046 -164.76499956 344.06026638 -164.79931641 354.78808594 C-164.82921159 364.13810119 -164.84857136 373.48806864 -164.85526353 382.83813035 C-164.85917557 387.78923801 -164.86837434 392.7402089 -164.89018822 397.69127274 C-164.91055519 402.35170753 -164.9168314 407.01194925 -164.91232109 411.67242432 C-164.91314619 413.3824506 -164.9191106 415.09248337 -164.93061447 416.80247116 C-164.9455621 419.139028 -164.94194369 421.47485788 -164.9337616 423.81143188 C-164.93652698 425.11853434 -164.93929235 426.42563679 -164.94214153 427.7723484 C-164.37262308 433.20023186 -162.33280319 437.13487543 -158.13549805 440.60302734 C-157.55928711 441.09416016 -156.98307617 441.58529297 -156.3894043 442.09130859 C-152.35445134 444.75524528 -148.06934599 444.41745771 -143.35365582 444.42195511 C-142.25581236 444.42503406 -142.25581236 444.42503406 -141.13579026 444.42817521 C-138.67007449 444.43385392 -136.20441442 444.43238689 -133.73869324 444.43096924 C-131.95831545 444.43355237 -130.17793825 444.43656538 -128.39756185 444.43997264 C-123.49463075 444.4480519 -118.59171429 444.44983272 -113.68877733 444.45057011 C-108.40508847 444.45241903 -103.12140724 444.45996551 -97.83772278 444.46670532 C-86.28000803 444.48029529 -74.72229675 444.48631427 -63.16457534 444.49071598 C-55.95086007 444.49347703 -48.73714614 444.4977141 -41.52343178 444.50222015 C-21.55886895 444.51441321 -1.59430719 444.52471276 18.37025928 444.52809525 C20.28741925 444.52842459 20.28741925 444.52842459 22.24330972 444.5287606 C23.52450663 444.52897887 24.80570355 444.52919715 26.12572461 444.52942204 C28.722 444.52986551 31.31827539 444.53031208 33.91455078 444.53076172 C35.84632188 444.53109386 35.84632188 444.53109386 37.81711867 444.53143272 C58.69256545 444.53538213 79.56797736 444.55284035 100.44341067 444.57612124 C121.86521758 444.59981908 143.28700697 444.61229636 164.7088272 444.61346316 C176.74074209 444.61438076 188.77261154 444.62015431 200.80451393 444.63828278 C211.04832431 444.65366254 221.29207519 444.65881676 231.53589491 444.65054467 C236.76404768 444.64663077 241.99208055 444.64760388 247.22021866 444.66160202 C252.00507251 444.67429636 256.78971581 444.67318283 261.57456919 444.66101131 C263.3067316 444.65904656 265.03890869 444.66216848 266.77105043 444.67085567 C269.1243353 444.68191205 271.47687235 444.67448568 273.8301363 444.66246414 C275.79136699 444.66335977 275.79136699 444.66335977 277.79221851 444.6642735 C282.65918225 444.16382856 286.63692116 442.85952246 290.38793945 439.57177734 C290.85458008 438.98396484 291.3212207 438.39615234 291.80200195 437.79052734 C292.28411133 437.20271484 292.7662207 436.61490234 293.26293945 436.00927734 C295.83627222 432.20972561 295.550386 428.61925132 295.54725647 424.17219543 C295.54811089 423.44275984 295.54896532 422.71332425 295.54984564 421.96178454 C295.55149618 419.51120072 295.54598601 417.06068496 295.54052734 414.61010742 C295.54024535 412.85599265 295.54040344 411.10187776 295.54096985 409.34776306 C295.54125736 404.57948745 295.53536801 399.81123687 295.52839589 395.04296708 C295.52215475 390.06214922 295.52155795 385.08133081 295.52037048 380.10050964 C295.51725942 370.66579031 295.50904904 361.23108254 295.49902099 351.7963683 C295.4878529 341.05648045 295.48234765 330.31659206 295.47732556 319.57669985 C295.46686625 297.48130256 295.44927114 275.38591568 295.42700195 253.29052734 C284.20365391 255.90565847 273.00573973 258.60752468 261.82543945 261.40063477 C260.24824147 261.79377281 258.67102112 262.18682117 257.09378052 262.57978821 C252.8714245 263.63214471 248.64944191 264.68599122 244.42758179 265.74033523 C241.78640831 266.39989014 239.14516716 267.05917339 236.50390625 267.71837807 C228.22715394 269.78416509 219.95063129 271.85086847 211.67444992 273.91894168 C202.13849609 276.30180333 192.60177407 278.68155894 183.064394 281.05870551 C175.66729814 282.90259019 168.27087594 284.74916003 160.87496758 286.59780198 C156.46522363 287.69997561 152.05519936 288.80099639 147.64447021 289.89922142 C143.51332345 290.92791212 139.38301829 291.9599135 135.25335312 292.99453545 C133.73503887 293.37430769 132.21641931 293.75286158 130.69748306 294.1301384 C128.63318905 294.64306633 126.57001587 295.16027569 124.50708008 295.67863464 C123.35018677 295.96749133 122.19329346 296.25634802 121.00134277 296.55395794 C118.51595597 297.03980155 118.51595597 297.03980155 117.42700195 298.29052734 C117.04374557 301.93715495 116.70723031 305.58087762 116.44067383 309.23779297 C115.79159006 316.20539128 113.8017804 322.94719427 108.23950195 327.60302734 C100.16144704 333.6706604 91.53605984 333.73702939 81.73950195 333.68896484 C79.79297729 333.69327011 79.79297729 333.69327011 77.80712891 333.69766235 C75.07386429 333.70205899 72.3408959 333.69574162 69.60766602 333.68164062 C66.12785758 333.66454983 62.64874361 333.67440548 59.16896057 333.69235802 C55.81742072 333.70588849 52.46606144 333.69637773 49.11450195 333.68896484 C47.87676025 333.69503754 46.63901855 333.70111023 45.36376953 333.70736694 C35.8579142 333.63063565 28.44198261 332.48084448 21.0324707 326.27880859 C16.23638947 320.33913622 14.76179851 314.27104991 14.17700195 306.79052734 C14.0996582 305.96810547 14.02231445 305.14568359 13.94262695 304.29833984 C13.7564571 302.29701397 13.589669 300.29390047 13.42700195 298.29052734 C5.2335918 295.37739263 -3.13995428 293.29628315 -11.57006836 291.20214844 C-13.17910123 290.79969222 -14.78805711 290.39692808 -16.39694214 289.99388123 C-20.74291775 288.90611005 -25.08997238 287.82271119 -29.43725681 286.74018431 C-33.99455815 285.60463244 -38.55089909 284.46523956 -43.10736084 283.32632446 C-50.75286991 281.41586852 -58.39903562 279.50806038 -66.0456543 277.60205078 C-75.85788677 275.15622178 -85.66902088 272.70601635 -95.47981644 270.25443077 C-103.92425071 268.14431736 -112.36918511 266.03620816 -120.8142004 263.9284215 C-123.52528364 263.25167438 -126.2362982 262.57465265 -128.94730377 261.89759445 C-133.20533575 260.83431102 -137.4636779 259.77227858 -141.72226334 258.71121407 C-143.28445193 258.32179595 -144.84654248 257.93198429 -146.40852737 257.54174995 C-148.54081952 257.00911462 -150.67346715 256.47792676 -152.80621338 255.94711304 C-153.99930744 255.64958319 -155.1924015 255.35205334 -156.42164993 255.04550743 C-159.13072937 254.39648328 -161.83707698 253.81274828 -164.57299805 253.29052734 Z M33.42700195 277.29052734 C29.83478454 282.2643147 31.09980044 289.39152584 31.11450195 295.22802734 C31.09838867 296.50355469 31.08227539 297.77908203 31.06567383 299.09326172 C31.0650293 300.32238281 31.06438477 301.55150391 31.0637207 302.81787109 C31.06073975 303.9392749 31.05775879 305.06067871 31.0546875 306.21606445 C31.47666974 309.70066926 32.2794902 311.52987443 34.42700195 314.29052734 C37.57980738 316.28308259 40.06478127 316.54698925 43.75878906 316.56518555 C45.3558091 316.57948357 45.3558091 316.57948357 46.98509216 316.59407043 C48.70237267 316.59270332 48.70237267 316.59270332 50.4543457 316.59130859 C51.63541397 316.59559372 52.81648224 316.59987885 54.03334045 316.60429382 C56.53068399 316.61003598 59.02804425 316.61053824 61.52539062 316.60620117 C65.34640027 316.60304231 69.16663497 316.62649923 72.98754883 316.65185547 C75.41398014 316.65412856 77.84041354 316.65483191 80.2668457 316.65380859 C81.98108986 316.66762321 81.98108986 316.66762321 83.72996521 316.68171692 C84.79779739 316.67548813 85.86562958 316.66925934 86.96582031 316.6628418 C87.90195663 316.66347122 88.83809296 316.66410065 89.80259705 316.66474915 C92.95709268 316.21494011 94.84350894 315.12321085 97.42700195 313.29052734 C101.01921937 308.31673999 99.75420347 301.18952885 99.73950195 295.35302734 C99.75561523 294.0775 99.77172852 292.80197266 99.78833008 291.48779297 C99.78929687 289.64411133 99.78929687 289.64411133 99.7902832 287.76318359 C99.79326416 286.64177979 99.79624512 285.52037598 99.79931641 284.36499023 C99.37733417 280.88038543 98.5745137 279.05118026 96.42700195 276.29052734 C93.27419652 274.2979721 90.78922263 274.03406544 87.09521484 274.01586914 C86.03053482 274.00633713 84.9658548 273.99680511 83.86891174 273.98698425 C82.72405807 273.98789566 81.57920441 273.98880707 80.3996582 273.98974609 C79.21858994 273.98546097 78.03752167 273.98117584 76.82066345 273.97676086 C74.32331992 273.97101871 71.82595965 273.97051645 69.32861328 273.97485352 C65.50760364 273.97801238 61.68736893 273.95455545 57.86645508 273.92919922 C55.44002376 273.92692613 53.01359037 273.92622278 50.5871582 273.92724609 C48.87291405 273.91343147 48.87291405 273.91343147 47.1240387 273.89933777 C45.52229042 273.90868095 45.52229042 273.90868095 43.88818359 273.91821289 C42.95204727 273.91758347 42.01591095 273.91695404 41.05140686 273.91630554 C37.89691123 274.36611458 36.01049497 275.45784383 33.42700195 277.29052734 Z "
		transform="translate(190.572998046875,24.70947265625)" />
</svg>