<?xml version="1.0" encoding="utf-8"?>
<svg version="1.1" xmlns="http://www.w3.org/2000/svg" width="512" height="512" fill="#0D86FF">
	<path
		d="M0 0 C0.9724968 -0.00525911 0.9724968 -0.00525911 1.96463999 -0.01062447 C4.14014838 -0.01993872 6.31538909 -0.01501518 8.49090862 -0.01015663 C10.06519832 -0.01389288 11.63948616 -0.01849431 13.21377105 -0.02388728 C17.54245183 -0.0361358 21.87105543 -0.03585463 26.19974959 -0.03349853 C30.86721881 -0.03309083 35.53466313 -0.04412501 40.20212078 -0.05361366 C49.34757338 -0.07023477 58.4930002 -0.07572371 67.63846663 -0.07683842 C75.0715403 -0.07778836 82.50460545 -0.08189598 89.93767643 -0.08823967 C111.00655055 -0.10585508 132.07540429 -0.11507807 153.14428584 -0.11357872 C154.8484411 -0.11345885 154.8484411 -0.11345885 156.58702374 -0.11333656 C158.29325701 -0.11321392 158.29325701 -0.11321392 160.03395965 -0.1130888 C178.47080581 -0.11227581 196.90757028 -0.13141606 215.34439281 -0.1596133 C234.27004325 -0.18833002 253.19565384 -0.20215426 272.12132663 -0.20042574 C282.74872453 -0.19976143 293.37603681 -0.20527207 304.00341511 -0.22678185 C313.05154376 -0.24497768 322.09954798 -0.24935411 331.147687 -0.235763 C335.76438243 -0.22922529 340.38083903 -0.22914507 344.99751186 -0.2464695 C349.2248602 -0.26216984 353.45177972 -0.25936783 357.6791174 -0.24190123 C359.20736587 -0.23882462 360.73564609 -0.24248863 362.2638571 -0.25362138 C371.44138888 -0.31604346 378.47066426 -0.09850738 385.68345928 6.22211266 C386.22228741 6.87308922 386.76111553 7.52406578 387.31627178 8.19476891 C387.87056866 8.84316734 388.42486553 9.49156578 388.99595928 10.15961266 C391.89588555 14.36842456 392.68998773 17.99765431 392.65245342 23.06822777 C392.64916531 24.2302169 392.64587719 25.39220604 392.64248943 26.58940697 C392.62893917 27.85547279 392.61538891 29.12153862 392.60142803 30.42597008 C392.59435102 31.77991827 392.58829935 33.13387215 392.58319378 34.48782921 C392.57098882 37.39943594 392.55342773 40.31094474 392.5322752 43.22249985 C392.50072816 47.83374286 392.49293405 52.44483379 392.49058819 57.05617332 C392.48981777 58.22538843 392.48981777 58.22538843 392.48903179 59.41822404 C392.48799035 61.01197304 392.48698608 62.60572207 392.48601818 64.19947112 C392.47813303 74.93003156 392.45299158 85.6600668 392.36949444 96.39032555 C392.31330289 103.63514861 392.29281531 110.87912909 392.31269455 118.12415487 C392.32175061 121.95371982 392.31279117 125.78130993 392.25990582 129.61056137 C392.21031683 133.21725234 392.20792698 136.82100183 392.24038029 140.42785835 C392.2457552 142.3679322 392.20175902 144.30795056 392.15582561 146.24748802 C392.27102179 153.27797657 393.26868041 156.82720807 398.3231535 161.86757469 C400.02882695 163.3312327 401.73483272 164.79450357 403.44127178 166.25726891 C409.87163434 174.00342703 409.14068073 182.89786021 409.07799053 192.44476891 C409.08604455 194.11429736 409.09657064 195.78381554 409.1094389 197.45331383 C409.1378668 201.82946584 409.1385852 206.20514309 409.1315794 210.58136559 C409.12423243 217.58366463 409.15581794 224.5858122 409.1940279 231.5879879 C409.20280762 234.01912123 409.19760654 236.44991621 409.19046307 238.8810482 C409.19569574 251.48914546 409.93258129 260.67170329 419.11314678 270.12445641 C420.46741205 271.46557347 421.82690442 272.80143042 423.19127178 274.13226891 C424.237346 275.16480797 424.237346 275.16480797 425.30455303 276.21820641 C427.01230522 277.90256473 428.72456622 279.58204507 430.44127178 281.25726891 C428.74541052 284.89029975 426.7032669 287.20275936 423.81627178 290.00726891 C422.99900616 290.80648766 422.18174053 291.60570641 421.33970928 292.42914391 C420.71322491 293.03242516 420.08674053 293.63570641 419.44127178 294.25726891 C414.94186108 292.21413797 412.00858269 289.16889835 408.56627178 285.69476891 C407.94002911 285.06288658 407.31378643 284.43100426 406.6685667 283.77997398 C394.35827162 271.14398413 392.00090509 259.87554874 391.99986553 242.71039391 C391.98807718 241.0088647 391.97470942 239.30734577 391.95984173 237.60584068 C391.92382585 233.14938693 391.90350169 228.69302442 391.88829327 224.23645592 C391.86336301 217.09058187 391.8237376 209.94490915 391.76639271 202.79922295 C391.75011061 200.31035656 391.7462914 197.82168238 391.74338055 195.33276939 C391.73360352 193.80532055 391.72334013 192.27787472 391.71251202 190.75043297 C391.71506496 190.06254189 391.71761791 189.3746508 391.72024822 188.66591454 C391.64785698 181.86193823 389.90965937 178.34951297 385.14683819 173.59052086 C384.25896618 172.69642006 383.37109417 171.80231926 382.45631695 170.8811245 C381.48546204 169.91895755 380.51429349 168.95710697 379.54283428 167.99555016 C378.54585285 166.99908778 377.54939042 166.0021059 376.55342388 165.00462914 C374.46831554 162.91961033 372.37815269 160.8398401 370.28404522 158.7638607 C367.60338108 156.10589766 364.93394625 153.43698827 362.26798725 150.76428509 C360.21287081 148.70582364 358.15279152 146.65238927 356.09109402 144.60052109 C355.10500509 143.61827415 354.12025239 142.63468383 353.13687801 141.64971924 C351.76101083 140.27348024 350.37790142 138.90449308 348.99449444 137.53583336 C348.20998913 136.75593544 347.42548382 135.97603752 346.61720562 135.17250633 C342.72727373 131.74862321 339.73296625 130.79381375 334.46861553 130.94086266 C330.06411747 131.62826987 327.32867813 134.19238129 324.56627178 137.50726891 C323.09673602 141.09946744 322.57411097 144.48136395 323.44127178 148.25726891 C326.32362937 153.08013844 329.74321596 156.77419268 333.78111553 160.65180016 C335.02162594 161.86701323 336.26185146 163.08251718 337.50181866 164.29828453 C339.4376262 166.184613 341.37648841 168.06756418 343.32091045 169.94501305 C354.86130129 181.11327499 361.17221143 188.30364445 361.64415264 204.80097008 C361.66643834 206.49466256 361.68204487 208.18845494 361.69127178 209.88226891 C361.70062756 210.73898186 361.70998333 211.59569481 361.71962261 212.47836876 C361.75405368 230.02027605 361.75405368 230.02027605 355.41807842 236.71747398 C352.78819462 238.9449884 350.07987126 240.97839724 347.22740459 242.91156578 C343.09515157 246.02487615 340.83470315 250.77688213 338.44127178 255.25726891 C338.05970928 255.90437828 337.67814678 256.55148766 337.28502178 257.21820641 C328.54271694 272.91461736 329.22784232 291.08651367 329.09947491 308.47601891 C328.92502471 316.49261384 328.61293952 322.90671747 322.80723858 328.96137047 C322.35646954 329.38901695 321.90570049 329.81666344 321.44127178 330.25726891 C323.43333013 334.61198742 326.28041666 337.46386394 329.62877178 340.81976891 C330.4573167 341.68505211 330.4573167 341.68505211 331.30259991 342.56781578 C338.94709919 350.26558683 347.17219588 351.27174938 357.58897686 351.4957943 C380.46577217 352.05251014 391.01841638 361.39928592 406.44127178 377.25726891 C404.90483326 380.93796778 402.65976233 383.24502094 399.81627178 386.00726891 C398.99900616 386.80648766 398.18174053 387.60570641 397.33970928 388.42914391 C396.71322491 389.03242516 396.08674053 389.63570641 395.44127178 390.25726891 C392.34349878 388.88815064 390.32909177 387.34746011 388.01549053 384.88617516 C387.38320538 384.22939781 386.75092022 383.57262047 386.09947491 382.89594078 C384.79317134 381.51972603 383.4910269 380.1395506 382.19322491 378.75531578 C374.2219674 370.50946582 366.51340688 369.26006069 355.2935667 369.01874352 C340.42241469 368.65684816 330.5745047 366.6753288 319.44127178 356.25726891 C318.28426979 354.6801084 317.17844189 353.06394261 316.13067913 351.41219139 C311.55564899 344.64665622 306.19024126 338.8114152 298.09303522 336.62245893 C283.17227134 333.77649146 267.50810675 334.48396158 252.39173198 334.60628963 C247.30500942 334.6359736 242.21935485 334.60532801 237.13269216 334.57484013 C224.43455631 334.49933 211.74054313 334.53725171 199.04287825 334.63049502 C188.75290473 334.7030633 178.46787231 334.66733967 168.17833233 334.55389977 C156.16929692 334.4215151 144.16416372 334.36537523 132.1541279 334.41458565 C125.81862341 334.44011701 119.48711476 334.43585789 113.15204716 334.35046768 C83.22946164 332.62504918 83.22946164 332.62504918 57.48014832 345.03153896 C54.06340042 348.65663403 51.19411339 352.64356364 48.38787556 356.75222015 C43.55555965 362.97083901 36.07322478 366.69463892 28.44127178 368.25726891 C24.60654556 368.66016309 20.79510257 368.76659516 16.94127178 368.81976891 C1.48600055 369.09394257 -6.50041555 371.79850457 -17.43372822 383.00726891 C-18.46626728 384.05334312 -18.46626728 384.05334312 -19.51966572 385.12055016 C-21.20402404 386.82830234 -22.88350438 388.54056334 -24.55872822 390.25726891 C-28.19175906 388.56140765 -30.50421867 386.51926403 -33.30872822 383.63226891 C-34.50755634 382.40637047 -34.50755634 382.40637047 -35.73060322 381.15570641 C-36.33388447 380.52922203 -36.93716572 379.90273766 -37.55872822 379.25726891 C-36.23773738 376.33599203 -34.80567281 374.24817507 -32.54700947 371.97992516 C-31.65658955 371.08563805 -31.65658955 371.08563805 -30.74818134 370.17328453 C-30.12878681 369.56162437 -29.50939228 368.94996422 -28.87122822 368.31976891 C-28.27116962 367.71197594 -27.67111103 367.10418297 -27.05286884 366.47797203 C-15.52370787 354.99834558 -5.02150331 351.84364036 11.02916241 351.58441734 C24.46969493 351.33450886 31.90943843 348.19077382 41.31627178 338.50726891 C41.90924053 337.90527672 42.50220928 337.30328453 43.11314678 336.68305016 C44.56050302 335.21234946 46.00154808 333.7354422 47.44127178 332.25726891 C46.22353952 329.72897278 44.95789947 327.53953426 43.37877178 325.19476891 C40.58218689 320.95478536 40.29982264 317.94672222 40.19517803 312.96430016 C40.1638377 311.7015023 40.13249737 310.43870445 40.10020733 309.13764 C40.08484936 308.47270531 40.06949139 307.80777061 40.05366802 307.12268639 C39.4246177 281.24120922 37.01270084 258.6627316 18.28502178 239.10883141 C17.83924786 238.63630943 17.39347393 238.16378746 16.9341917 237.67694664 C15.45543486 236.18894599 15.45543486 236.18894599 13.56749249 235.0114193 C10.71753435 232.88799927 8.81690545 230.9880367 8.04106426 227.41327477 C7.46920125 222.63001852 7.48935975 217.85334686 7.58360577 213.04315758 C7.62849948 210.46043463 7.60439438 207.88497293 7.57213116 205.30219078 C7.55743926 191.02512036 11.35884274 184.17154976 21.30064678 174.07758141 C23.91180478 171.49262864 26.54977465 168.93616374 29.19127178 166.38226891 C31.20290969 164.42604138 33.21143575 162.4668519 35.21428204 160.50162315 C36.45301558 159.28723745 37.69705804 158.07823662 38.94707012 156.87546349 C39.50815472 156.32744072 40.06923931 155.77941795 40.64732647 155.21478844 C41.1399699 154.73865105 41.63261333 154.26251366 42.14018536 153.77194786 C45.18855448 150.22314398 45.88867635 146.97435228 45.75767803 142.28461266 C45.07027082 137.8801146 42.5061594 135.14467525 39.19127178 132.38226891 C35.59907325 130.91273314 32.21717674 130.39010809 28.44127178 131.25726891 C22.1402663 134.82205229 17.34792978 140.04483993 12.26549053 145.13226891 C11.29018836 146.10367888 10.31466484 147.07486666 9.33893108 148.04584312 C7.30412259 150.073222 5.27319081 152.1043906 3.24473858 154.13812828 C0.64612122 156.74256367 -1.96374166 159.33540028 -4.57680702 161.92532921 C-6.59032119 163.92411726 -8.59687197 165.92978311 -10.60147381 167.93750572 C-11.56119694 168.89671599 -12.52328167 169.85356951 -13.48776913 170.80798912 C-14.83278658 172.14067011 -16.16732323 173.48390386 -17.50135517 174.82758141 C-18.64336132 175.96864342 -18.64336132 175.96864342 -19.8084383 177.13275719 C-23.16916222 181.21202273 -22.70448265 185.51634473 -22.70057392 190.6051693 C-22.70404835 191.33910912 -22.70752277 192.07304893 -22.71110249 192.82922935 C-22.71844347 194.42083101 -22.72379767 196.01244279 -22.72739315 197.60405731 C-22.73458666 200.13205323 -22.75027717 202.65985819 -22.76873493 205.18779564 C-22.82105075 212.37490695 -22.86910674 219.56191487 -22.88465595 226.74921227 C-22.89479953 231.15015129 -22.92428731 235.55061034 -22.96597576 239.9513588 C-22.97820405 241.61967317 -22.98342212 243.28805559 -22.98117733 244.95641327 C-22.96254793 263.33029331 -27.91339598 273.59548648 -40.76209736 286.58588219 C-43.34074348 289.1641779 -45.94464633 291.71491488 -48.55872822 294.25726891 C-52.23942709 292.72083039 -54.54648026 290.47575945 -57.30872822 287.63226891 C-58.50755634 286.40637047 -58.50755634 286.40637047 -59.73060322 285.15570641 C-60.33388447 284.52922203 -60.93716572 283.90273766 -61.55872822 283.25726891 C-60.18960995 280.1594959 -58.64891942 278.14508889 -56.18763447 275.83148766 C-55.53085712 275.1992025 -54.87407978 274.56691734 -54.19740009 273.91547203 C-52.82118534 272.60916847 -51.44100991 271.30702402 -50.05677509 270.00922203 C-43.22494387 263.40489547 -40.76115117 257.33713914 -40.44088459 247.71777916 C-40.44343754 246.41113304 -40.44599049 245.10448692 -40.4486208 243.75824547 C-40.44807846 242.25435955 -40.4474915 240.75047364 -40.44686604 239.24658775 C-40.44900828 238.06208408 -40.44900828 238.06208408 -40.45119381 236.85365105 C-40.45474101 232.63656454 -40.42888195 228.4196069 -40.40833759 224.20258141 C-40.38404925 218.85253279 -40.36828167 213.50287275 -40.38367939 208.15277672 C-40.39539508 203.81423034 -40.37780415 199.47664003 -40.34123516 195.13824272 C-40.33266908 193.49420538 -40.33462409 191.85007538 -40.34773922 190.20606804 C-40.4190226 180.54830301 -40.04885504 172.95541128 -33.55872822 165.25726891 C-32.00955951 163.94592687 -30.45812556 162.63725728 -28.904706 161.3309536 C-24.14314192 156.58406718 -23.50445728 152.99893471 -23.41991901 146.40523338 C-23.44920994 145.15040657 -23.47850086 143.89557976 -23.50867939 142.60272789 C-23.50790254 141.24493193 -23.50310004 139.88713328 -23.49461079 138.52936363 C-23.48495671 135.62145885 -23.50337338 132.71561716 -23.54422283 129.80798721 C-23.60867513 125.20508428 -23.60926204 120.60347152 -23.60177326 116.00020409 C-23.5973899 108.71749481 -23.63522899 101.4357234 -23.6913417 94.15325171 C-23.79110471 81.11550764 -23.8327461 68.07763388 -23.83808213 55.03952461 C-23.84180532 50.4693798 -23.86845562 45.90011906 -23.91416013 41.33020771 C-23.93917887 38.48256727 -23.94795478 35.63502948 -23.95291996 32.78729057 C-23.96150781 30.84934277 -23.99033974 28.91151732 -24.0198946 26.97377586 C-24.01357131 18.82832603 -23.11419558 13.31460144 -17.59388447 7.01508141 C-16.94290791 6.47625328 -16.29193134 5.93742516 -15.62122822 5.38226891 C-14.97282978 4.82797203 -14.32443134 4.27367516 -13.65638447 3.70258141 C-9.194158 0.6280492 -5.36931509 0.006554 0 0 Z M-5.55872822 19.25726891 C-7.46129556 22.58271989 -7.80751772 25.4360714 -7.79923725 29.22438622 C-7.80198658 30.19888725 -7.80473591 31.17338829 -7.80756855 32.17741966 C-7.800378 33.23477821 -7.79318745 34.29213676 -7.785779 35.38153648 C-7.78607105 36.50392723 -7.78636311 37.62631798 -7.78666401 38.78272057 C-7.78527171 42.48915932 -7.76971492 46.19539656 -7.75404072 49.90180016 C-7.75031024 52.47298129 -7.74746343 55.04416385 -7.74546528 57.61534691 C-7.73861165 63.68905689 -7.72285189 69.76268383 -7.7027663 75.83636254 C-7.68039116 82.75290261 -7.66940981 89.66944617 -7.65937543 96.58601344 C-7.63848517 110.809804 -7.60331928 125.03353389 -7.55872822 139.25726891 C-1.83884626 134.51098388 3.12893127 129.56960941 8.44127178 124.25726891 C8.44127178 93.89726891 8.44127178 63.53726891 8.44127178 32.25726891 C124.60127178 32.25726891 240.76127178 32.25726891 360.44127178 32.25726891 C360.44127178 62.61726891 360.44127178 92.97726891 360.44127178 124.25726891 C367.86627178 131.68226891 367.86627178 131.68226891 375.44127178 139.25726891 C375.77127178 139.25726891 376.10127178 139.25726891 376.44127178 139.25726891 C376.51140363 124.36679426 376.56428039 109.47633243 376.5967083 94.58572769 C376.61216645 87.67149771 376.63323573 80.75737045 376.66759014 73.84320641 C376.70072511 67.17127761 376.71812291 60.4994776 376.72590351 53.82746315 C376.73144869 51.2813518 376.74227695 48.73524632 376.75846195 46.18918037 C376.7802229 42.62434556 376.78323918 39.05995237 376.78184795 35.49506187 C376.79263378 34.4412986 376.80341961 33.38753532 376.81453228 32.30183983 C376.79194645 26.95727058 376.74154647 22.72092915 373.44127178 18.25726891 C369.59421126 16.28539838 366.38316961 16.00613313 362.09560013 16.00279331 C360.80745551 15.99696112 359.51931089 15.99112893 358.19213158 15.98512 C356.76464418 15.98875311 355.33715726 15.99257748 353.90967083 15.99657249 C352.39170326 15.99355214 350.87373721 15.98966324 349.35577387 15.98497993 C345.18284896 15.97467628 341.01000975 15.97688775 336.83707774 15.98116052 C332.33734017 15.98362344 327.83762346 15.97461901 323.33789349 15.96712303 C314.52197582 15.9543621 305.70608859 15.95258406 296.89016325 15.95492329 C289.72595144 15.95670499 282.56174889 15.95496001 275.39753819 15.95069885 C274.37861504 15.95010366 273.35969189 15.94950847 272.30989228 15.94889525 C270.24007833 15.94768352 268.17026439 15.94646939 266.10045045 15.94525287 C246.68211176 15.93437205 227.26379042 15.93654245 207.84545075 15.94263772 C190.07331891 15.94780787 172.30124187 15.9365498 154.52912087 15.9175395 C136.28826824 15.89817711 118.04744155 15.88990226 99.80657858 15.89366275 C89.56267585 15.89557716 79.31881978 15.89306388 69.07492542 15.87894821 C60.35466912 15.86705383 51.63448819 15.86560768 42.91423089 15.87773838 C38.46389324 15.88364063 34.01369357 15.88468942 29.56336498 15.87273598 C25.49038102 15.86192305 21.41765102 15.86492549 17.34467917 15.87899766 C15.87030377 15.88165729 14.39590876 15.87923853 12.92155255 15.8712618 C10.91865175 15.8611766 8.91567954 15.87135621 6.91278458 15.8825388 C5.79987661 15.88248378 4.68696864 15.88242876 3.54033619 15.88237208 C-0.06122057 16.31805589 -2.46731102 17.3830108 -5.55872822 19.25726891 Z M24.44127178 48.25726891 C24.44127178 70.03726891 24.44127178 91.81726891 24.44127178 114.25726891 C29.06127178 114.25726891 33.68127178 114.25726891 38.44127178 114.25726891 C48.19622136 117.00084847 54.25670733 120.32585194 59.40611553 129.23383141 C63.60170468 137.43502077 63.72052843 147.00850986 61.12877178 155.75726891 C58.14794961 162.90113764 52.85476746 167.9171722 47.44127178 173.25726891 C46.13126202 174.55156822 46.13126202 174.55156822 44.79478741 175.872015 C44.31848888 176.34245735 43.84219036 176.8128997 43.35145855 177.29759789 C41.85172772 178.78027689 40.35421182 180.26516908 38.85679913 181.75018883 C36.8473875 183.74252776 34.82571348 185.72119393 32.79527569 187.69208336 C31.39414532 189.07013145 31.39414532 189.07013145 29.96470928 190.47601891 C29.11827862 191.30037437 28.27184795 192.12472984 27.39976788 192.97406578 C23.30683061 197.74558776 24.18987173 203.75318107 24.12877178 209.75726891 C24.09976788 210.70730797 24.07076397 211.65734703 24.04088116 212.63617516 C24.03250225 213.55269859 24.02412334 214.46922203 24.01549053 215.41351891 C24.00090801 216.24689781 23.98632549 217.08027672 23.97130108 217.93890953 C24.61908036 221.13439632 25.93953129 222.20988436 28.44127178 224.25726891 C30.97769114 224.85239874 30.97769114 224.85239874 33.79490948 224.76063347 C34.8872263 224.77106446 35.97954311 224.78149545 37.10496044 224.79224253 C38.30455647 224.78331964 39.50415249 224.77439675 40.74009991 224.76520348 C42.65209557 224.77456342 42.65209557 224.77456342 44.6027174 224.78411245 C48.14339137 224.8008405 51.68363517 224.792544 55.22431087 224.78016758 C59.04169693 224.77113347 62.85900796 224.78507863 66.6763792 224.79608727 C74.15561565 224.81389468 81.63469173 224.81002266 89.11393452 224.7984367 C95.19124069 224.78941137 101.26850185 224.78817447 107.3458128 224.79253197 C108.64213658 224.79345137 108.64213658 224.79345137 109.96464872 224.79438934 C111.72016368 224.79566821 113.47567862 224.79696506 115.23119354 224.7982797 C131.70134373 224.80969201 148.17140493 224.79656161 164.64154053 224.77507824 C178.78055802 224.75720666 192.91944416 224.76031058 207.05845928 224.77875328 C223.46876724 224.80014852 239.87899717 224.80859331 256.28931713 224.79630423 C258.038455 224.79503 259.78759288 224.79377252 261.53673077 224.79253197 C262.39739037 224.79191487 263.25804997 224.79129776 264.14479017 224.79066196 C270.21637402 224.78720501 276.28790847 224.79304481 282.35948467 224.80245018 C289.7564842 224.81365661 297.1533139 224.8106588 304.55029392 224.7893272 C308.32600918 224.77879838 312.10144105 224.77472582 315.87715435 224.78792381 C319.96583197 224.80199986 324.05379106 224.78521898 328.14244366 224.76520348 C329.34203968 224.77412636 330.5416357 224.78304925 331.77758312 224.79224253 C332.86989994 224.78181154 333.96221676 224.77138055 335.08763409 224.76063347 C336.03172886 224.75998406 336.97582363 224.75933465 337.94852734 224.75866556 C341.19455537 224.10575162 342.39564783 222.80554349 344.44127178 220.25726891 C345.01724791 217.93825249 345.01724791 217.93825249 344.90220928 215.44867516 C344.89834209 214.53666344 344.89447491 213.62465172 344.89049053 212.68500328 C344.86599834 211.73947594 344.84150616 210.79394859 344.81627178 209.81976891 C344.81498272 208.87810875 344.81369366 207.93644859 344.81236553 206.96625328 C344.71398542 199.22155227 343.49496416 194.950147 337.9214201 189.47447777 C337.31308834 188.89104103 336.70475658 188.30760429 336.07799053 187.70648766 C335.44899349 187.08885048 334.81999645 186.4712133 334.1719389 185.83485985 C331.49205311 183.20377282 328.79487411 180.59068389 326.09874249 177.97626305 C324.12716491 176.05936492 322.16497343 174.13319755 320.20299053 172.20648766 C319.60073147 171.62912361 318.9984724 171.05175957 318.37796307 170.45689964 C311.10059574 163.30522109 306.19610619 155.52143876 306.06627178 145.06976891 C306.19886952 137.32606121 307.9802023 130.15837165 312.69127178 123.88226891 C322.54424761 114.47715561 330.5319551 114.25726891 344.44127178 114.25726891 C344.44127178 92.47726891 344.44127178 70.69726891 344.44127178 48.25726891 C238.84127178 48.25726891 133.24127178 48.25726891 24.44127178 48.25726891 Z M42.44127178 240.25726891 C45.08127178 245.86726891 47.72127178 251.47726891 50.44127178 257.25726891 C54.28199762 267.66765736 55.43408694 277.26216767 56.44127178 288.25726891 C67.00127178 288.25726891 77.56127178 288.25726891 88.44127178 288.25726891 C88.44127178 272.41726891 88.44127178 256.57726891 88.44127178 240.25726891 C73.26127178 240.25726891 58.08127178 240.25726891 42.44127178 240.25726891 Z M104.44127178 240.25726891 C104.44127178 256.09726891 104.44127178 271.93726891 104.44127178 288.25726891 C128.20127178 288.25726891 151.96127178 288.25726891 176.44127178 288.25726891 C176.44127178 272.41726891 176.44127178 256.57726891 176.44127178 240.25726891 C152.68127178 240.25726891 128.92127178 240.25726891 104.44127178 240.25726891 Z M192.44127178 240.25726891 C192.44127178 256.09726891 192.44127178 271.93726891 192.44127178 288.25726891 C216.20127178 288.25726891 239.96127178 288.25726891 264.44127178 288.25726891 C264.44127178 272.41726891 264.44127178 256.57726891 264.44127178 240.25726891 C240.68127178 240.25726891 216.92127178 240.25726891 192.44127178 240.25726891 Z M280.44127178 240.25726891 C280.44127178 256.09726891 280.44127178 271.93726891 280.44127178 288.25726891 C291.00127178 288.25726891 301.56127178 288.25726891 312.44127178 288.25726891 C312.66814678 285.61726891 312.89502178 282.97726891 313.12877178 280.25726891 C314.68390349 265.237106 319.57290323 253.994006 326.44127178 240.25726891 C311.26127178 240.25726891 296.08127178 240.25726891 280.44127178 240.25726891 Z M56.44127178 304.25726891 C56.18813933 312.06444801 56.18813933 312.06444801 59.44127178 318.25726891 C64.07807049 320.90664206 68.93202785 320.53936291 74.11349773 320.51796532 C75.09358903 320.52179086 76.07368033 320.52561641 77.08347136 320.52955788 C80.37067994 320.53988443 83.65771375 320.53589635 86.94493389 320.53192711 C89.30043989 320.53627375 91.65594448 320.54145674 94.01144695 320.54741478 C100.41219195 320.56082071 106.81287795 320.5613817 113.21363425 320.55885148 C117.21099482 320.55756863 121.20834971 320.56018861 125.2057085 320.56383896 C125.86938541 320.56443415 126.53306232 320.56502934 127.21685066 320.56564256 C128.5651286 320.56685432 129.91340654 320.56806845 131.26168448 320.56928494 C143.90433031 320.58016004 156.54694945 320.57799808 169.18959678 320.57190009 C180.75387497 320.56673052 192.31806894 320.57798747 203.88233047 320.59699831 C215.75895604 320.61637287 227.63554177 320.62463341 239.51218325 320.62087506 C246.17904525 320.61896249 252.84584607 320.62172042 259.51269627 320.6355896 C265.78110342 320.64814165 272.04934168 320.64624859 278.31774616 320.63317871 C280.61957512 320.63080772 282.92141587 320.63356624 285.22323132 320.64180183 C288.36303894 320.65222646 291.50227535 320.64420274 294.64206219 320.63149071 C296.0114721 320.64255213 296.0114721 320.64255213 297.40854686 320.65383703 C302.49180871 320.61047839 306.05278079 320.11965871 310.44127178 317.25726891 C313.2218736 312.8335842 312.44127178 309.89602259 312.44127178 304.25726891 C227.96127178 304.25726891 143.48127178 304.25726891 56.44127178 304.25726891 Z "
		transform="translate(71.55872821807861,111.74273109436035)" />
	<path
		d="M0 0 C14.35546434 11.70990834 26.06794902 27.89121936 28.30664062 46.72021484 C29.76601625 68.44058871 26.97909464 88.67535502 12.32739258 105.62890625 C-0.87957734 120.09489289 -17.32732525 130.10586173 -37.24804688 131.03271484 C-57.93878131 131.62467515 -76.50369154 127.612305 -92.13085938 113.34521484 C-106.8738166 99.20544466 -115.50400135 82.70692505 -116.09399414 62.08496094 C-116.33065412 41.68831843 -111.22582647 23.74080029 -96.89331055 8.796875 C-71.34187485 -16.78517169 -29.7766123 -22.50418132 0 0 Z M-77.69335938 14.72021484 C-78.32757813 15.15849609 -78.96179688 15.59677734 -79.61523438 16.04833984 C-89.83046062 23.82690661 -95.95731377 36.46227948 -98.69335938 48.72021484 C-100.10866313 65.38175626 -97.74581484 79.03770601 -87.69335938 92.72021484 C-87.19320312 93.42791016 -86.69304687 94.13560547 -86.17773438 94.86474609 C-78.54810568 104.63298283 -65.84051735 111.77305895 -53.69335938 113.72021484 C-37.04169669 115.26699434 -23.37770564 112.77402026 -9.69335938 102.72021484 C-8.98566406 102.22005859 -8.27796875 101.71990234 -7.54882812 101.20458984 C2.21940861 93.57496115 9.35948473 80.86737282 11.30664062 68.72021484 C12.85342013 52.06855216 10.36044604 38.4045611 0.30664062 24.72021484 C-0.19351563 24.01251953 -0.69367188 23.30482422 -1.20898438 22.57568359 C-8.83861307 12.80744686 -21.5462014 5.66737074 -33.69335938 3.72021484 C-50.38152432 2.17004463 -63.95398922 4.7037708 -77.69335938 14.72021484 Z "
		transform="translate(299.693359375,189.27978515625)" />
	<path
		d="M0 0 C9.03654749 4.87117349 17.59459027 10.61087532 26.20117188 16.19335938 C28.52208562 17.68797922 30.85600771 19.15639763 33.203125 20.609375 C33.8439502 21.00922607 34.48477539 21.40907715 35.14501953 21.82104492 C36.80499588 22.85496917 38.46874545 23.8828288 40.1328125 24.91015625 C43.52140786 27.39479687 45.9308042 30.11160841 47.8125 33.875 C48.30153328 39.23031529 48.51713791 44.17746323 46.4375 49.1875 C39.23169743 56.5648693 29.55831093 61.60580203 20.8125 66.9375 C19.70132813 67.61876953 18.59015625 68.30003906 17.4453125 69.00195312 C14.23813394 70.96587835 11.0259854 72.92141619 7.8125 74.875 C6.84441406 75.46780762 5.87632812 76.06061523 4.87890625 76.67138672 C3.99074219 77.21166504 3.10257813 77.75194336 2.1875 78.30859375 C1.41148437 78.78224365 0.63546875 79.25589355 -0.1640625 79.74389648 C-4.37771197 82.0993306 -8.46545489 82.46420349 -13.1875 81.875 C-18.45648164 80.29335271 -21.60251324 78.16935273 -24.32684326 73.24208069 C-26.22215899 68.02935759 -25.75291289 62.3519398 -25.71875 56.875 C-25.72144923 55.51171594 -25.72533522 54.14843377 -25.73034668 52.78515625 C-25.73622166 49.9373123 -25.72774458 47.08997251 -25.70898438 44.2421875 C-25.68619485 40.60725772 -25.69932888 36.97350956 -25.72327423 33.33862305 C-25.7377872 30.52627801 -25.73310137 27.71420921 -25.72276306 24.90185547 C-25.71882926 22.91503118 -25.73089336 20.92819578 -25.74328613 18.94140625 C-25.67220507 12.0740218 -25.47603748 7.37391822 -21.1875 1.875 C-14.532987 -3.63544613 -7.6569566 -3.56444532 0 0 Z M-9.1875 14.875 C-9.1875 31.375 -9.1875 47.875 -9.1875 64.875 C-1.84852098 60.5939289 5.40972053 56.31483916 12.5625 51.75 C14.14051468 50.7472222 15.71863858 49.74461627 17.296875 48.7421875 C18.04517578 48.26362305 18.79347656 47.78505859 19.56445312 47.29199219 C21.08817821 46.33155557 22.62391644 45.38996524 24.16992188 44.46582031 C24.90275391 44.02592773 25.63558594 43.58603516 26.390625 43.1328125 C27.3791748 42.55104248 27.3791748 42.55104248 28.38769531 41.95751953 C29.09297363 41.42167236 29.09297363 41.42167236 29.8125 40.875 C29.8125 40.215 29.8125 39.555 29.8125 38.875 C28.08716938 37.53412934 28.08716938 37.53412934 25.81640625 36.22265625 C24.95499023 35.69824951 24.09357422 35.17384277 23.20605469 34.63354492 C22.27180664 34.0738501 21.33755859 33.51415527 20.375 32.9375 C18.45348082 31.76978485 16.53292223 30.6004877 14.61328125 29.4296875 C13.64342285 28.83897461 12.67356445 28.24826172 11.67431641 27.63964844 C6.68289865 24.56184878 1.77955068 21.35024941 -3.11889648 18.12719727 C-5.9440891 15.89252018 -5.9440891 15.89252018 -9.1875 14.875 Z "
		transform="translate(249.1875,208.125)" />
	<path
		d="M0 0 C3.47175735 2.67428438 6.75023238 5.55174033 9.97265625 8.51953125 C6.03071455 13.4000305 1.8531555 17.57758955 -3.02734375 21.51953125 C-3.56101562 21.01164062 -4.0946875 20.50375 -4.64453125 19.98046875 C-19.1611465 6.56892456 -36.43955927 0.29498897 -56.13085938 0.54638672 C-74.94377312 1.4166869 -89.79191083 9.65667049 -104.02734375 21.51953125 C-107.98734375 17.55953125 -111.94734375 13.59953125 -116.02734375 9.51953125 C-88.42328523 -24.9855419 -33.68205004 -23.55796563 0 0 Z "
		transform="translate(309.02734375,32.48046875)" />
	<path
		d="M0 0 C1.43520996 0.00858032 1.43520996 0.00858032 2.89941406 0.01733398 C15.90300266 0.34144156 26.11047138 4.29951223 36.3125 12.5 C37.64335537 13.50329545 38.97591525 14.50434996 40.3125 15.5 C38.77606148 19.18069887 36.53099055 21.48775204 33.6875 24.25 C32.87023437 25.04921875 32.05296875 25.8484375 31.2109375 26.671875 C30.58445312 27.27515625 29.95796875 27.8784375 29.3125 28.5 C25.36017702 26.61015361 21.73554188 24.28571821 18.04296875 21.9375 C9.30563633 17.33758823 -1.35135214 17.14004631 -10.890625 19.1875 C-16.97137865 21.22574145 -21.84041074 24.33344763 -26.6875 28.5 C-30.31811667 26.96781315 -32.6738773 24.7816856 -35.4375 22 C-36.23671875 21.2059375 -37.0359375 20.411875 -37.859375 19.59375 C-39.6875 17.5 -39.6875 17.5 -39.6875 15.5 C-27.99017929 5.56587836 -15.42691334 -0.10831196 0 0 Z "
		transform="translate(255.6875,47.5)" />
	<path
		d="M0 0 C3.14092016 2.17448319 3.83212957 2.94163567 5.25 6.25 C-3.87787659 16.91340723 -3.87787659 16.91340723 -8.37890625 17.72265625 C-10.75 17.375 -10.75 17.375 -12.875 16.7578125 C-14.95157492 16.0098406 -14.95157492 16.0098406 -17.75 17.25 C-21.38 13.62 -25.01 9.99 -28.75 6.25 C-26.71038766 2.17077531 -25.43448082 0.88957877 -21.359375 -0.984375 C-14.51829465 -2.9916381 -6.53476607 -3.00503841 0 0 Z "
		transform="translate(267.75,81.75)" />
</svg>