<?xml version="1.0" encoding="utf-8"?>
<svg version="1.1" xmlns="http://www.w3.org/2000/svg" width="512" height="512" fill="#0D86FF">
	<path
		d="M0 0 C1.3672047 -0.00734592 2.73440321 -0.01593367 4.10159302 -0.02566528 C7.80419131 -0.047836 11.50656676 -0.0508142 15.20922232 -0.04891777 C18.30550828 -0.04879786 21.4017474 -0.05737061 24.49802029 -0.06569529 C31.80600382 -0.08491362 39.11387313 -0.08781903 46.421875 -0.08105469 C53.94853091 -0.07441585 61.47469652 -0.09727511 69.00125301 -0.13436842 C75.47451018 -0.16510732 81.94760996 -0.17642091 88.42093861 -0.1725316 C92.28222948 -0.17046829 96.14313877 -0.17587796 100.0043602 -0.20042419 C103.63748193 -0.22275846 107.26980901 -0.22075931 110.90293503 -0.20049667 C112.86229997 -0.19548487 114.82168017 -0.2150573 116.78094482 -0.23550415 C125.03082141 -0.15715915 130.05643719 1.19796154 136.1067791 6.82718658 C141.93547093 13.10625667 141.87855952 20.29944386 141.71923828 28.35742188 C141.71021484 29.23205078 141.70119141 30.10667969 141.69189453 31.0078125 C141.66853398 33.14530251 141.63267075 35.28264973 141.59423828 37.41992188 C142.26623481 37.4162347 142.93823133 37.41254753 143.63059139 37.40874863 C160.00699753 37.32028258 176.38332765 37.2541565 192.75991726 37.21267319 C200.67963193 37.19207722 208.59918677 37.16401367 216.51879883 37.11816406 C223.42423093 37.0782051 230.32954723 37.05246752 237.23509175 37.0435679 C240.88914238 37.03836838 244.54286182 37.02621038 248.19680595 36.99700165 C252.28312538 36.96460375 256.3688747 36.96396824 260.45532227 36.96582031 C261.65726227 36.95143921 262.85920227 36.93705811 264.0975647 36.92224121 C274.19419644 36.97167658 281.37304092 39.540285 288.80126953 46.41992188 C295.20564721 53.56380286 296.7517259 60.5356872 296.69189453 69.87094116 C296.69048242 70.73175501 296.6890703 71.59256887 296.68761539 72.47946799 C296.68189118 75.36899243 296.66919383 78.25844656 296.65673828 81.14794922 C296.65158582 83.21759412 296.64699643 85.2872405 296.64292908 87.35688782 C296.63386136 91.81652902 296.6225579 96.27615738 296.6100769 100.73579025 C296.5921445 107.78640646 296.59015383 114.83696828 296.5925293 121.88760376 C296.59289845 123.07708693 296.59326761 124.2665701 296.59364796 125.49209821 C296.59496568 129.15553953 296.59652311 132.81898068 296.59814453 136.48242188 C296.60486025 151.66778769 296.59994565 166.85281038 296.54296875 182.03808594 C296.50153736 193.10957405 296.49171953 204.18057963 296.51907921 215.25211871 C296.53234169 221.11227014 296.52937878 226.97142127 296.48803711 232.83146286 C296.44948558 238.34276036 296.45273295 243.85244144 296.48816109 249.36374474 C296.49371094 251.38661811 296.48384835 253.40960109 296.45747185 255.4323101 C295.85666694 265.74220345 295.85666694 265.74220345 299.56570435 274.83192825 C301.89394586 276.46009322 301.89394586 276.46009322 304.37110901 277.40114784 C308.19165244 279.15195491 309.83808177 282.74296918 311.59423828 286.41992188 C312.82381065 290.10863899 312.7423316 293.51614755 312.7414093 297.35758972 C312.74508599 298.17530249 312.74876268 298.99301527 312.75255078 299.83550721 C312.76359495 302.58525004 312.76743271 305.3349551 312.77124023 308.0847168 C312.77750435 310.05245077 312.78415111 312.02018355 312.79115295 313.98791504 C312.80856785 319.34140548 312.81911617 324.69488698 312.82735848 330.04839873 C312.83250786 333.39281033 312.83858364 336.73721916 312.84486961 340.0816288 C312.86392351 350.5446421 312.87815394 361.00764833 312.88648158 371.47067565 C312.89625416 383.54992657 312.92257351 395.62899425 312.96298248 407.70818061 C312.99314032 417.0433223 313.00795017 426.37841147 313.0112626 435.71360093 C313.01361353 441.28961551 313.02257979 446.86543438 313.04772377 452.44139671 C313.07100344 457.68877673 313.07523803 462.93583216 313.06496239 468.18325043 C313.06446689 470.10690961 313.07079148 472.03058476 313.08451843 473.95419502 C313.10224243 476.58562954 313.09512895 479.21589982 313.08198547 481.84733582 C313.09843934 482.98243309 313.09843934 482.98243309 313.11522561 484.14046162 C313.03755021 490.6058664 310.90014014 495.6828745 306.73486328 500.62695312 C306.11095703 501.15675781 305.48705078 501.6865625 304.84423828 502.23242188 C304.23064453 502.77511719 303.61705078 503.3178125 302.98486328 503.87695312 C296.95286792 507.77015275 291.27588886 508.86463604 284.26638985 508.80023861 C283.46324268 508.80489853 282.66009551 508.80955845 281.83261055 508.81435958 C279.14842159 508.82628549 276.46474105 508.81692349 273.7805481 508.80760193 C271.83386168 508.8117759 269.8871777 508.81725376 267.94049823 508.82392174 C262.59628783 508.83838679 257.25223151 508.83412826 251.90801263 508.82675493 C246.1423855 508.8220282 240.37679194 508.83452874 234.61117554 508.84477234 C223.31778717 508.86197544 212.02445441 508.86279719 200.73105635 508.85755944 C191.5522646 508.85351927 182.37348929 508.85495947 173.19469833 508.86030769 C171.88869898 508.86105612 170.58269962 508.86180454 169.23712453 508.86257564 C166.58405011 508.8641071 163.93097569 508.86564545 161.27790128 508.86719061 C143.46254433 508.87724911 125.64719325 508.88118187 107.83183479 508.87356472 C107.13530506 508.87326755 106.43877533 508.87297037 105.72113864 508.8726642 C100.06496738 508.8702153 94.4087962 508.86760369 88.75262502 508.86498006 C66.69149975 508.85487832 44.6304506 508.86323207 22.56933594 508.88647461 C-2.2226816 508.9125521 -27.01465286 508.92534429 -51.80668461 508.91828686 C-64.93131633 508.91479218 -78.05588555 508.91704316 -91.18050766 508.93453789 C-102.35337298 508.94924617 -113.52613178 508.94991323 -124.69899498 508.93246698 C-130.39945624 508.92394332 -136.0997271 508.92184094 -141.80017853 508.93711853 C-147.01993372 508.95093464 -152.23933484 508.94624184 -157.45906939 508.92687929 C-159.34593947 508.92310955 -161.23283771 508.92606924 -163.11968277 508.93649095 C-184.45658188 509.04594877 -184.45658188 509.04594877 -193.34326172 501.10742188 C-199.22412058 495.1398673 -199.87271534 488.425286 -199.87451172 480.47070312 C-199.88593201 479.06814522 -199.88593201 479.06814522 -199.89758301 477.63725281 C-199.90833932 475.67152568 -199.9112554 473.7057416 -199.90673828 471.73999023 C-199.90576114 468.73064942 -199.94753256 465.72382017 -199.99169922 462.71484375 C-199.99690318 460.80013551 -199.99959446 458.88541844 -199.99951172 456.97070312 C-200.01590698 456.07273514 -200.03230225 455.17476715 -200.04919434 454.24958801 C-199.98053962 448.06691141 -199.98053962 448.06691141 -197.09521484 444.8190918 C-193.42515496 442.9097678 -191.3388 443.32741124 -187.40576172 444.41992188 C-184.58321914 446.39570168 -184.01923015 448.11111531 -183.40576172 451.41992188 C-183.29012041 454.06212886 -183.22117223 456.68322964 -183.19482422 459.32617188 C-183.16676755 460.88998464 -183.13810318 462.4537866 -183.10888672 464.01757812 C-183.0675754 466.47314281 -183.03066991 468.92850301 -183.00439453 471.38427734 C-182.97678404 473.76116019 -182.930932 476.13713808 -182.88232422 478.51367188 C-182.87907135 479.24606079 -182.87581848 479.97844971 -182.87246704 480.73303223 C-182.7972251 483.85559556 -182.58568437 486.09397979 -181.06347656 488.8515625 C-177.56836431 492.15827843 -173.27728328 491.56214503 -168.77289009 491.55134964 C-167.9841444 491.55340227 -167.19539872 491.55545491 -166.38275164 491.55756974 C-163.71764623 491.56326181 -161.05259214 491.56177978 -158.38748169 491.56036377 C-156.46629841 491.56294613 -154.54511567 491.56595893 -152.62393367 491.56936717 C-147.32722871 491.57745541 -142.03053728 491.57922775 -136.73382688 491.57996464 C-131.02820549 491.581812 -125.32259119 491.58935767 -119.61697388 491.59609985 C-107.1337438 491.60969609 -94.65051693 491.61570975 -82.16728067 491.62011051 C-74.37785556 491.62287045 -66.58843169 491.62710731 -58.79900742 491.63161469 C-37.24662644 491.64380846 -15.69424709 491.65414334 5.85813713 491.65748978 C7.25212064 491.65771141 8.64610414 491.65793319 10.04008765 491.65815513 C11.43746559 491.65837577 12.83484354 491.65859625 14.23222148 491.65881658 C17.0356737 491.65925913 19.83912591 491.65970625 22.64257812 491.66015625 C23.33767237 491.66026564 24.03276661 491.66037503 24.74892431 491.66048774 C47.29578427 491.66411971 69.84261211 491.68004508 92.38945976 491.70334661 C116.21845923 491.72792828 140.04743661 491.74165509 163.8764497 491.74285769 C176.86964559 491.74377581 189.86279941 491.74956248 202.85598373 491.76767731 C213.9174692 491.78304433 224.97889959 491.78821887 236.0403937 491.7799392 C241.68751853 491.77602078 247.33453236 491.77702027 252.98164368 491.79099655 C258.14699799 491.80366403 263.31215706 491.80260132 268.47751082 491.79040584 C270.35031249 491.78843638 272.22312765 491.79158435 274.0959103 491.8002502 C276.63407499 491.81125526 279.17153993 491.80391736 281.70968437 491.79185867 C282.44331674 491.79945387 283.1769491 491.80704906 283.93281275 491.81487441 C288.31641998 491.76965754 291.1075237 491.11829234 294.59423828 488.41992188 C296.11945641 485.36948561 295.74223617 482.18843961 295.7414093 478.84133911 C295.74692433 477.65469549 295.74692433 477.65469549 295.75255078 476.44407928 C295.76361242 473.77863102 295.76743562 471.11322171 295.77124023 468.44775391 C295.77750292 466.54264196 295.78414954 464.63753124 295.79115295 462.73242188 C295.80857862 457.54649096 295.81911856 452.36056928 295.82735848 447.17461634 C295.83250436 443.93727997 295.83858021 440.69994649 295.84486961 437.46261215 C295.86392438 427.34132279 295.87815601 417.22004074 295.88648158 407.09873688 C295.89626197 395.40090675 295.92260125 383.70326543 295.96298248 372.00550187 C295.9930981 362.97277573 296.00794605 353.94010387 296.0112626 344.90732849 C296.01361792 339.50804075 296.02264105 334.10895467 296.04772377 328.70972061 C296.07093049 323.6322636 296.07526765 318.55514208 296.06496239 313.47764587 C296.06446514 311.61197166 296.0708409 309.74628134 296.08451843 307.8806572 C296.10212298 305.33752216 296.09518846 302.79560622 296.08198547 300.25247192 C296.09295472 299.51064356 296.10392397 298.7688152 296.11522561 298.00450718 C296.07568752 294.85971521 295.88473918 292.83215306 294.05212563 290.23160875 C290.70240371 287.76255855 287.77653571 287.86605663 283.77305603 287.91655731 C282.5776271 287.90783667 282.5776271 287.90783667 281.35804808 287.89893985 C278.67076878 287.88426895 275.98439274 287.89825779 273.29711914 287.9119873 C271.35785675 287.90738119 269.41859784 287.90103023 267.47934628 287.89307833 C262.13727206 287.87632216 256.79548229 287.88465989 251.45340681 287.8970232 C245.69736231 287.90604571 239.94136791 287.89211791 234.18533325 287.88110352 C222.9040862 287.86328372 211.62294539 287.86717368 200.34169412 287.87875408 C191.17610058 287.88777453 182.01053689 287.88901842 172.84494019 287.88465881 C170.89085579 287.88373942 170.89085579 287.88373942 168.89729494 287.88280144 C166.25113399 287.88152259 163.60497305 287.88022574 160.95881212 287.87891108 C136.83336589 287.86782081 112.70797561 287.87933683 88.58253847 287.90028147 C66.54897242 287.91926455 44.51549884 287.91756606 22.48193359 287.8984375 C-2.26092603 287.87702876 -27.00373239 287.86859387 -51.74660015 287.88088655 C-54.3832213 287.8821608 -57.01984246 287.88341828 -59.65646362 287.88465881 C-60.95385265 287.88527592 -62.25124168 287.88589302 -63.58794552 287.88652882 C-72.74631588 287.88998769 -81.90465351 287.88414182 -91.0630188 287.8747406 C-102.21859135 287.86354133 -113.37405128 287.86651698 -124.52961087 287.88786358 C-130.22524674 287.89840189 -135.92069457 287.90244853 -141.61632919 287.88926697 C-146.8248347 287.87739477 -152.03297694 287.88381984 -157.24144924 287.90517718 C-159.13102128 287.90966527 -161.02062368 287.90732791 -162.9101764 287.89767402 C-165.46875389 287.88559936 -168.02606914 287.897893 -170.58457947 287.91655731 C-171.69816584 287.90251032 -171.69816584 287.90251032 -172.8342489 287.88817954 C-176.27192535 287.9386807 -178.09449085 288.18246038 -180.86337131 290.29477656 C-182.80892579 292.97541175 -182.90528447 294.5001667 -182.90455627 297.79586792 C-182.91413361 298.88653564 -182.92371094 299.97720337 -182.93357849 301.10092163 C-182.92383499 302.29271027 -182.91409149 303.4844989 -182.90405273 304.71240234 C-182.90957153 305.97131287 -182.91509033 307.23022339 -182.92077637 308.52728271 C-182.93272301 311.26328765 -182.93224099 313.99890881 -182.92218208 316.7349205 C-182.90661345 321.06366517 -182.92030506 325.39201618 -182.93821716 329.72073364 C-182.96903733 338.13079257 -182.97053871 346.54073122 -182.96856689 354.95083618 C-182.96717416 365.64854054 -182.977558 376.34615199 -183.01714462 387.04378808 C-183.03205972 391.34410682 -183.03182191 395.64407659 -183.01966679 399.94440055 C-183.01608542 401.97736846 -183.01927638 404.01019192 -183.02545166 406.04315186 C-183.03283564 408.51804844 -183.0295579 410.99300966 -183.01347351 413.46786499 C-183.07645365 423.68547677 -183.07645365 423.68547677 -186.40576172 428.41992188 C-189.49749923 429.96579063 -192.00005724 429.71351709 -195.40576172 429.41992188 C-198.09127943 427.37496392 -199.25775097 426.17676969 -199.91191959 422.83170128 C-199.91472651 421.84546587 -199.91753344 420.85923046 -199.92042542 419.84310913 C-199.93314987 418.70773712 -199.94587433 417.57236511 -199.95898438 416.40258789 C-199.9524585 415.160979 -199.94593262 413.91937012 -199.93920898 412.64013672 C-199.94782455 411.32912994 -199.95644012 410.01812317 -199.96531677 408.66738892 C-199.98782839 405.07189561 -199.98486539 401.47684219 -199.9759953 397.88130522 C-199.97088209 394.87476962 -199.97818148 391.86831645 -199.98546737 388.86178935 C-200.00247535 381.76179018 -199.9988956 374.66200583 -199.98217773 367.56201172 C-199.96529302 360.25467478 -199.98103799 352.9479368 -200.01340061 345.64066541 C-200.04017295 339.35593464 -200.04735089 333.07138942 -200.03888553 326.78660738 C-200.0339738 323.03813887 -200.03607441 319.29002979 -200.05667305 315.5416069 C-200.07514832 312.01024589 -200.06892961 308.47973779 -200.04447365 304.94842148 C-200.03714686 303.04908156 -200.0542341 301.14969542 -200.07229614 299.25042725 C-199.98915568 291.67951734 -198.89810166 285.6670789 -194.40576172 279.41992188 C-191.32645394 276.58231633 -188.15067731 274.29237967 -184.40576172 272.41992188 C-184.40356188 270.8025925 -184.40356188 270.8025925 -184.4013176 269.1525898 C-184.36470412 242.90334623 -184.30523016 216.65423007 -184.22185898 190.40509224 C-184.18206898 177.7111401 -184.14967623 165.01724995 -184.13476562 152.32324219 C-184.12174898 141.25767717 -184.09478376 130.19224856 -184.05114865 119.12676036 C-184.02853438 113.26898739 -184.01285103 107.41138266 -184.01387787 101.55356216 C-184.01462448 96.03611981 -183.99667258 90.51904937 -183.96459389 85.00170326 C-183.95609932 82.98054895 -183.95434193 80.95935291 -183.95995903 78.93818855 C-183.99177988 65.72475614 -183.72945601 55.18682458 -174.19873047 45.10742188 C-168.47578876 39.7211238 -162.51636023 37.16447312 -154.67300415 37.17941284 C-153.55408783 37.17666351 -152.43517151 37.17391418 -151.28234863 37.17108154 C-149.46325989 37.18186737 -149.46325989 37.18186737 -147.60742188 37.19287109 C-146.3190744 37.19257904 -145.03072693 37.19228699 -143.70333862 37.19198608 C-140.18308874 37.19141379 -136.66297599 37.20314797 -133.14275789 37.217134 C-129.45922325 37.22966204 -125.77568523 37.23081349 -122.09213257 37.23318481 C-115.1224398 37.2393935 -108.15281 37.25579601 -101.18314493 37.27588379 C-93.24604354 37.29826186 -85.30893911 37.30924102 -77.37181401 37.31927466 C-61.04975976 37.3401628 -44.72776878 37.37532685 -28.40576172 37.41992188 C-28.44056641 36.14117187 -28.47537109 34.86242188 -28.51123047 33.54492188 C-28.53938959 31.83660179 -28.56668746 30.12826735 -28.59326172 28.41992188 C-28.61839844 27.58074219 -28.64353516 26.7415625 -28.66943359 25.87695312 C-28.75304685 18.68621344 -27.52240784 12.18835592 -22.59326172 6.60742188 C-22.13306641 6.06472656 -21.67287109 5.52203125 -21.19873047 4.96289062 C-14.77367918 -0.56629294 -8.06111113 -0.01852909 0 0 Z M-11.40576172 18.41992188 C-14.2420347 24.09246784 -12.40576172 31.07782268 -12.40576172 37.41992188 C33.13423828 37.41992188 78.67423828 37.41992188 125.59423828 37.41992188 C127.29423828 21.85325521 127.29423828 21.85325521 122.59423828 16.41992188 C119.59912768 15.42155168 117.61234873 15.28959703 114.4836731 15.27947998 C113.42659149 15.27376984 112.36950989 15.26805969 111.28039551 15.26217651 C110.12084351 15.26105865 108.9612915 15.2599408 107.76660156 15.25878906 C106.54524506 15.25382416 105.32388855 15.24885925 104.06552124 15.2437439 C100.7142144 15.23163479 97.36296995 15.22417712 94.01164865 15.21973324 C91.9175518 15.21680108 89.82346041 15.21269602 87.7293663 15.20822906 C81.17637028 15.19455749 74.62338676 15.18488892 68.07037747 15.18102717 C60.50767114 15.17654578 52.94514548 15.15899286 45.38249409 15.13002658 C39.53526633 15.10840849 33.6880894 15.09832284 27.8408221 15.09698606 C24.34910375 15.0959382 20.85755532 15.09003459 17.36587906 15.07216644 C13.47074809 15.05262104 9.57584292 15.05697526 5.68066406 15.06347656 C3.94740875 15.04965439 3.94740875 15.04965439 2.17913818 15.03555298 C1.11641693 15.04112213 0.05369568 15.04669128 -1.04122925 15.0524292 C-1.96189116 15.05096264 -2.88255306 15.04949608 -3.83111382 15.04798508 C-6.96122773 15.50016518 -8.85247418 16.5833482 -11.40576172 18.41992188 Z M-165.21826172 59.48242188 C-167.81384905 63.71732753 -167.54353916 67.84653222 -167.52601624 72.63920593 C-167.52687066 73.48706455 -167.52772509 74.33492316 -167.5286054 75.20847446 C-167.53025728 78.05982128 -167.52474356 80.91110974 -167.51928711 83.76245117 C-167.51900515 85.8022766 -167.51916314 87.84210212 -167.51972961 89.88192749 C-167.52001724 95.42910244 -167.51412606 100.97625588 -167.50715566 106.52342582 C-167.5009164 112.31703314 -167.50031786 118.11064093 -167.49913025 123.9042511 C-167.49601863 134.87956423 -167.48780751 145.85486742 -167.47778076 156.83017617 C-167.46452761 171.65808714 -167.45911835 186.48600081 -167.45327854 201.31391621 C-167.44386752 224.6825922 -167.42394746 248.05124725 -167.40576172 271.41992188 C-136.71576172 271.41992188 -106.02576172 271.41992188 -74.40576172 271.41992188 C-73.69671241 250.34592676 -73.69671241 250.34592676 -77.40576172 230.41992188 C-77.66099609 229.56398437 -77.91623047 228.70804688 -78.17919922 227.82617188 C-81.35182626 218.62846412 -87.73343884 210.82711055 -93.65576172 203.23242188 C-104.0167598 189.51342719 -105.84724542 174.13181138 -104.40576172 157.41992188 C-101.87010758 143.26610103 -94.1589989 129.77643935 -82.45263672 121.27539062 C-72.5842102 114.9332474 -72.5842102 114.9332474 -65.40576172 115.41992188 C-61.57115305 117.12419239 -59.97549522 118.58098757 -58.40576172 122.41992188 C-58.12728882 124.49542236 -58.12728882 124.49542236 -58.08691406 126.72949219 C-58.06704437 127.57006165 -58.04717468 128.4106311 -58.02670288 129.27667236 C-58.01515167 130.17472595 -58.00360046 131.07277954 -57.99169922 131.99804688 C-57.97233307 132.92462097 -57.95296692 133.85119507 -57.93301392 134.80584717 C-57.87331405 137.76044559 -57.82687104 140.71508316 -57.78076172 143.66992188 C-57.74257312 145.67514704 -57.70352087 147.68035596 -57.66357422 149.68554688 C-57.56599727 154.59691987 -57.48635254 159.50812324 -57.40576172 164.41992188 C-50.47576172 164.41992188 -43.54576172 164.41992188 -36.40576172 164.41992188 C-36.36837891 161.52984375 -36.33099609 158.63976562 -36.29248047 155.66210938 C-36.24622244 152.8521381 -36.19500433 150.04229778 -36.14331055 147.23242188 C-36.11012907 145.28491219 -36.08207614 143.33730791 -36.05932617 141.38964844 C-36.02565538 138.58422673 -35.97333345 135.77966659 -35.91748047 132.97460938 C-35.91109055 132.10875214 -35.90470062 131.2428949 -35.89811707 130.35079956 C-35.77664878 125.31637031 -35.17599178 121.79071977 -32.40576172 117.41992188 C-29.80970894 115.38016612 -26.89323315 114.80943893 -23.58935547 114.91601562 C-12.01672398 117.58662289 -3.37069523 127.11365396 2.84423828 136.60742188 C11.33706075 151.10695572 13.52713874 167.17972106 9.72314453 183.50585938 C7.04705909 193.48640248 1.69932373 201.59695025 -4.69726562 209.51953125 C-19.43422916 228.10018385 -19.40576172 247.95431129 -19.40576172 271.41992188 C21.51423828 271.41992188 62.43423828 271.41992188 104.59423828 271.41992188 C104.75923828 260.15867187 104.92423828 248.89742187 105.09423828 237.29492188 C105.16707031 233.74726074 105.23990234 230.19959961 105.31494141 226.54443359 C105.34170691 223.34721418 105.34170691 223.34721418 105.35778809 220.14993286 C105.37002468 218.73249184 105.39806507 217.31513106 105.43884277 215.89822388 C105.98455694 207.5664946 105.98455694 207.5664946 102.828125 200.24298096 C100.73344204 198.62994318 100.73344204 198.62994318 98.50598145 197.52908325 C95.18300312 195.60114686 94.7002028 192.99804238 93.59423828 189.41992188 C92.90673828 186.48242187 92.90673828 186.48242187 92.59423828 184.41992188 C81.35068385 185.15319716 71.59864229 192.10722329 63.99658203 200.09960938 C60.56301908 203.33232324 55.73427538 202.68529264 51.32861328 202.63867188 C47.79478279 202.35596544 45.47226669 201.48619868 42.59423828 199.41992188 C38.3208037 192.54398042 40.46204683 183.65101025 42.09423828 176.16992188 C46.5091905 157.71989608 57.67400285 142.6800736 73.59423828 132.41992188 C85.94951614 125.18099626 97.23273069 122.94530547 111.45751953 122.98632812 C112.86232248 122.9817549 114.26712321 122.97644598 115.67192078 122.97044373 C118.5941181 122.96157708 121.5160411 122.96386555 124.43823242 122.97387695 C128.17173927 122.9854263 131.90430858 122.96503295 135.63769245 122.93595982 C138.5297387 122.91758066 141.42156012 122.91789243 144.31365013 122.92359734 C145.6902925 122.92374998 147.06695065 122.91775266 148.44353676 122.90530586 C161.85102381 122.80101597 161.85102381 122.80101597 166.59423828 127.41992188 C167.96923828 130.16992188 167.96923828 130.16992188 168.59423828 132.41992188 C170.24423828 132.41992188 171.89423828 132.41992188 173.59423828 132.41992188 C174.00673828 131.49179688 174.41923828 130.56367188 174.84423828 129.60742188 C177.15528315 125.39801872 179.0912556 123.9209161 183.59423828 122.41992188 C187.83028416 122.19234432 192.0666294 122.19164022 196.30834961 122.1796875 C198.38908201 122.17000404 200.4688166 122.13897822 202.54931641 122.10742188 C203.88329495 122.10088881 205.21728052 122.09563953 206.55126953 122.09179688 C207.75759033 122.08245117 208.96391113 122.07310547 210.20678711 122.06347656 C214.08357968 122.47141293 216.36225989 123.23827184 219.59423828 125.41992188 C223.56066811 130.70849498 223.02873795 136.62217226 222.99267578 142.95117188 C222.99554596 144.06045044 222.99841614 145.169729 223.00137329 146.31262207 C223.0034103 148.6525931 222.99790592 150.99258129 222.98535156 153.33251953 C222.96929356 156.90761508 222.98521344 160.4815801 223.00439453 164.05664062 C223.00241204 166.33398686 222.99856823 168.6113324 222.99267578 170.88867188 C222.99874847 171.95444458 223.00482117 173.02021729 223.01107788 174.11828613 C222.91785654 183.98843087 222.91785654 183.98843087 219.59423828 188.41992188 C215.22386698 191.37062338 211.64295281 191.80403003 206.43798828 191.81835938 C205.77263062 191.82122955 205.10727295 191.82409973 204.42175293 191.82705688 C203.02334739 191.82908671 201.62491276 191.82363291 200.2265625 191.81103516 C198.09977047 191.79496368 195.97487825 191.81091836 193.84814453 191.83007812 C192.48225497 191.8280955 191.11636658 191.82425142 189.75048828 191.81835938 C188.52136719 191.81497559 187.29224609 191.8115918 186.02587891 191.80810547 C182.25714128 191.38178982 179.82590534 190.37229991 176.59423828 188.41992188 C175.0441015 186.14346315 174.49273691 184.06550117 173.59423828 181.41992188 C171.94423828 181.41992188 170.29423828 181.41992188 168.59423828 181.41992188 C168.4646875 182.61488281 168.4646875 182.61488281 168.33251953 183.83398438 C167.43612662 190.59393822 166.64978269 194.73429535 161.59423828 199.41992188 C160.10923828 200.40992188 160.10923828 200.40992188 158.59423828 201.41992188 C158.15354794 204.45220803 158.15354794 204.45220803 158.25366211 208.07275391 C158.2533005 208.76684797 158.2529389 209.46094204 158.25256634 210.17606926 C158.25480882 212.42691588 158.27766828 214.67702078 158.30126953 216.92773438 C158.30567938 218.31567018 158.30874053 219.70361095 158.3104248 221.09155273 C158.32616513 226.24275178 158.3680487 231.39384408 158.40673828 236.54492188 C158.49955078 253.80804688 158.49955078 253.80804688 158.59423828 271.41992188 C198.85423828 271.41992188 239.11423828 271.41992188 280.59423828 271.41992188 C280.68161525 234.77540032 280.68161525 234.77540032 280.74072266 198.13085938 C280.75853647 183.19137489 280.7794993 168.2519411 280.82055664 153.3125 C280.85044176 142.43309114 280.86980921 131.55372333 280.87650377 120.67427456 C280.88041751 114.91275077 280.88962713 109.15134443 280.91142845 103.38985825 C280.93177948 97.96775064 280.93807483 92.54580894 280.93356133 87.12366676 C280.93438714 85.13305701 280.94036095 83.14244175 280.95185471 81.15186501 C280.96677707 78.43436242 280.96319276 75.71748653 280.95500183 72.99996948 C280.96374036 72.21202023 280.97247888 71.42407099 280.98148221 70.61224449 C280.94224064 65.79661968 280.15853786 62.50417447 277.59423828 58.41992188 C272.72684458 54.02739585 270.185009 53.2946762 263.68066788 53.2857008 C262.95753383 53.28334857 262.23439978 53.28099634 261.48935258 53.27857283 C259.04140988 53.2718617 256.59352 53.27234168 254.14556885 53.27275085 C252.38270351 53.26945354 250.61983893 53.26572826 248.85697532 53.26160938 C243.99320297 53.25156616 239.12944297 53.24786886 234.26566172 53.24522007 C229.02762735 53.24132389 223.78960282 53.23174511 218.55157471 53.2230072 C205.89227888 53.20322358 193.23298223 53.19317429 180.5736748 53.18427941 C174.617188 53.17989972 168.66070209 53.1745321 162.704216 53.16929054 C142.9121583 53.15227655 123.12010116 53.13778129 103.32803726 53.1305418 C98.18923187 53.1286318 93.05042647 53.12671148 87.91162109 53.12475586 C86.63434284 53.12427212 85.35706458 53.12378838 84.04108092 53.12328998 C63.33941611 53.11498563 42.63780901 53.08964263 21.93616942 53.05717518 C0.6986229 53.02413787 -20.53889425 53.00609607 -41.77646661 53.00289756 C-53.70723309 53.0007294 -65.63791542 52.9919361 -77.56865692 52.96643639 C-87.72728282 52.94477483 -97.88580412 52.93665653 -108.04445049 52.94640317 C-113.22997179 52.95096104 -118.41527709 52.9489755 -123.60076904 52.92964172 C-128.34561139 52.91210323 -133.09007867 52.91293161 -137.83492449 52.92853902 C-139.55367255 52.93092931 -141.27244596 52.92651843 -142.99115512 52.91471037 C-145.32417124 52.89967155 -147.65584457 52.90920698 -149.98882675 52.92493725 C-151.2856267 52.92396044 -152.58242664 52.92298363 -153.91852355 52.92197722 C-158.84546351 53.62549768 -161.96269385 55.77781016 -165.21826172 59.48242188 Z M-20.40576172 134.41992188 C-20.42034424 135.41846191 -20.43492676 136.41700195 -20.44995117 137.44580078 C-20.5081624 141.16978794 -20.58539249 144.8931848 -20.66821289 148.61669922 C-20.70135535 150.22467428 -20.72942025 151.83276268 -20.75219727 153.44091797 C-20.78594139 155.75992892 -20.83826365 158.07791119 -20.89404297 160.39648438 C-20.90043289 161.10922516 -20.90682281 161.82196594 -20.91340637 162.55630493 C-21.04909969 167.21958475 -21.96521441 170.44857584 -24.40576172 174.41992188 C-31.00295242 180.52232327 -37.53332252 179.66747545 -46.09326172 179.73242188 C-47.97561523 179.77592773 -47.97561523 179.77592773 -49.89599609 179.8203125 C-63.26551294 179.91183631 -63.26551294 179.91183631 -68.40576172 175.41992188 C-74.2723909 169.00159219 -73.07897155 159.05610825 -73.15576172 150.91992188 C-73.1839607 149.41467976 -73.21389354 147.90946908 -73.24560547 146.40429688 C-73.31900464 142.74298571 -73.36886298 139.08180399 -73.40576172 135.41992188 C-80.76454789 138.80994602 -85.08682875 146.7479933 -87.90576172 154.10742188 C-91.13631485 165.21244825 -90.73095831 177.06813784 -85.40576172 187.41992188 C-83.0249793 191.58810021 -80.24548754 195.36107052 -77.26513672 199.11914062 C-65.56072933 214.02832622 -59.68145746 230.41541598 -59.08935547 249.44726562 C-59.04746094 250.73310547 -59.00556641 252.01894531 -58.96240234 253.34375 C-58.92260472 254.68163813 -58.88289221 256.01952879 -58.84326172 257.35742188 C-58.79999518 258.72266749 -58.75637851 260.08790206 -58.71240234 261.453125 C-58.60675067 264.77528307 -58.5057935 268.09758984 -58.40576172 271.41992188 C-50.81576172 271.41992188 -43.22576172 271.41992188 -35.40576172 271.41992188 C-35.35677734 269.70546875 -35.30779297 267.99101562 -35.25732422 266.22460938 C-34.47663934 241.28099779 -32.67549119 219.2735027 -16.24169922 199.26147461 C-7.31303426 188.38861672 -2.53880872 177.21409499 -3.59326172 162.86914062 C-5.29525646 151.75298747 -11.32058627 142.06128101 -19.40576172 134.41992188 C-19.73576172 134.41992188 -20.06576172 134.41992188 -20.40576172 134.41992188 Z M188.59423828 137.41992188 C186.11923828 141.37992188 186.11923828 141.37992188 183.59423828 145.41992188 C179.22161255 147.60623474 175.96416917 147.75280388 171.21923828 147.73242188 C170.47673828 147.74853516 169.73423828 147.76464844 168.96923828 147.78125 C164.1485932 147.78550852 160.66064701 147.26880704 156.59423828 144.41992188 C155.540159 142.44788819 154.53324133 140.44927479 153.59423828 138.41992188 C145.99961493 138.29219304 138.40527283 138.20518367 130.80981445 138.14526367 C128.23093311 138.12026044 125.65212162 138.08624657 123.07348633 138.04272461 C119.34715446 137.98144811 115.62176676 137.95356845 111.89501953 137.93164062 C110.75905838 137.9058342 109.62309723 137.88002777 108.45271301 137.85343933 C96.35098837 137.84928514 86.13413858 142.114762 76.59423828 149.41992188 C75.98064453 149.86980469 75.36705078 150.3196875 74.73486328 150.78320312 C65.42551918 158.09474551 58.51208345 169.93675941 56.78173828 181.66992188 C56.71986328 182.57742187 56.65798828 183.48492187 56.59423828 184.41992188 C57.15111328 184.04480469 57.70798828 183.6696875 58.28173828 183.28320312 C59.88608589 182.20731461 61.49445624 181.13741001 63.10595703 180.07226562 C64.59880696 179.08093828 66.08360365 178.07707308 67.55126953 177.04882812 C76.11746985 171.25988012 86.21864473 167.84885408 96.59423828 169.41992188 C100.19042091 170.48941857 102.70656895 172.11963561 104.87158203 175.29101562 C106.81201297 178.9439977 107.85418783 182.34964441 108.59423828 186.41992188 C112.02177052 188.133688 115.95220572 187.56137548 119.72314453 187.55273438 C120.6279808 187.5536911 121.53281708 187.55464783 122.46507263 187.55563354 C124.37914092 187.5563146 126.29321152 187.55446549 128.20727539 187.55029297 C131.14816433 187.54493749 134.08890096 187.55024365 137.02978516 187.55664062 C138.88590529 187.55597995 140.74202532 187.55469901 142.59814453 187.55273438 C143.48353409 187.55475861 144.36892365 187.55678284 145.28114319 187.55886841 C149.25459122 187.94351564 149.25459122 187.94351564 152.59423828 186.41992188 C152.75305433 184.69353263 152.87113055 182.96332258 152.96923828 181.23242188 C153.36644416 176.66159003 153.83673596 173.22337336 156.59423828 169.41992188 C161.23082303 166.52292273 165.23869655 165.95432061 170.59423828 166.04492188 C171.28001953 166.03332031 171.96580078 166.02171875 172.67236328 166.00976562 C177.39656993 166.03681261 180.70766564 166.71477898 184.59423828 169.41992188 C185.91423828 171.72992188 187.23423828 174.03992188 188.59423828 176.41992188 C194.86423828 176.41992188 201.13423828 176.41992188 207.59423828 176.41992188 C207.59423828 163.54992187 207.59423828 150.67992187 207.59423828 137.41992188 C201.32423828 137.41992188 195.05423828 137.41992188 188.59423828 137.41992188 Z M120.59423828 203.41992188 C120.59423828 225.85992187 120.59423828 248.29992187 120.59423828 271.41992188 C127.85423828 271.41992188 135.11423828 271.41992188 142.59423828 271.41992188 C142.59423828 248.97992188 142.59423828 226.53992188 142.59423828 203.41992188 C135.33423828 203.41992188 128.07423828 203.41992188 120.59423828 203.41992188 Z "
		transform="translate(199.40576171875,1.580078125)" />
	<path
		d="M0 0 C0.66581413 -0.00465992 1.33162825 -0.00931984 2.01761857 -0.01412097 C4.25269431 -0.02608902 6.4871642 -0.01666898 8.72224522 -0.00736332 C10.33920985 -0.01153546 11.95617155 -0.01701231 13.57312781 -0.02368313 C18.01972247 -0.03817225 22.46613232 -0.03388223 26.91273725 -0.02651632 C31.70696445 -0.02179552 36.50115105 -0.03428483 41.29536533 -0.04453373 C50.68881702 -0.06174834 60.08220189 -0.06255624 69.47566526 -0.05732083 C77.10898816 -0.05328291 84.74229127 -0.05471818 92.37561321 -0.06006908 C94.00391094 -0.06119172 94.00391094 -0.06119172 95.66510357 -0.06233703 C97.87020552 -0.06386847 100.07530746 -0.06540682 102.2804094 -0.066952 C122.96919848 -0.08068663 143.65794977 -0.07523254 164.34673799 -0.06376678 C183.2828603 -0.05383296 202.21888492 -0.06677596 221.15499216 -0.09070098 C240.58914287 -0.11507065 260.02324804 -0.12470513 279.45741373 -0.11804825 C290.37202327 -0.11455134 301.28655765 -0.11681919 312.20115566 -0.13429928 C321.49235644 -0.14899459 330.78342914 -0.14969171 340.07462733 -0.13222837 C344.8166346 -0.12369402 349.55841282 -0.12162803 354.30040836 -0.13687992 C358.6399151 -0.15066469 362.9789952 -0.1460444 367.31847686 -0.12664068 C368.88975493 -0.1228612 370.46106666 -0.12585843 372.03231489 -0.13625234 C374.16645345 -0.14936782 376.2991076 -0.13789008 378.43318176 -0.12025452 C379.61899603 -0.12014718 380.8048103 -0.12003984 382.02655834 -0.11992925 C385.99851941 0.49088729 388.15862759 1.89095662 391.27951145 4.38031673 C394.19664039 8.79766658 394.65569864 12.29402976 394.66046238 17.52878475 C394.66514235 18.22529294 394.66982232 18.92180113 394.67464411 19.63941562 C394.68655978 21.96096091 394.67715082 24.28191214 394.66769505 26.60346127 C394.67176221 28.27271524 394.6771049 29.94196653 394.68362522 31.61121273 C394.6972853 36.13584242 394.69200614 40.66026658 394.68248796 45.18489981 C394.67488713 49.92093264 394.68193792 54.656948 394.68664646 59.39298153 C394.6921017 67.34370741 394.68491734 75.29434965 394.67062473 83.24506283 C394.65428744 92.43942716 394.65959548 101.63359203 394.67610395 110.82795155 C394.68971201 118.72277921 394.69164215 126.61754679 394.68378794 134.51238239 C394.67910913 139.2274486 394.67849253 143.942421 394.68839741 148.65748119 C394.6970553 153.08821627 394.69106681 157.51869369 394.67371464 161.9494009 C394.66974397 163.57640435 394.67089375 165.20342944 394.67750263 166.83042431 C394.68568527 169.04918213 394.67543736 171.26711117 394.66046238 173.485816 C394.6593313 174.72797438 394.65820023 175.97013275 394.65703487 177.24993229 C394.25153288 180.6123121 393.66113023 182.01474826 391.27951145 184.38031673 C389.12326145 184.87641048 389.12326145 184.87641048 386.77951145 184.81781673 C386.00607395 184.81652767 385.23263645 184.81523861 384.43576145 184.81391048 C381.80828273 184.28555878 380.93600026 183.44587747 379.27951145 181.38031673 C354.68231197 132.18591778 378.27951145 71.38132683 378.27951145 16.38031673 C253.53951145 16.38031673 128.79951145 16.38031673 0.27951145 16.38031673 C0.27951145 70.17031673 0.27951145 123.96031673 0.27951145 179.38031673 C-1.72048855 183.38031673 -1.72048855 183.38031673 -3.72048855 184.38031673 C-5.7790823 184.61859798 -5.7790823 184.61859798 -8.15798855 184.69281673 C-8.94044949 184.73019955 -9.72291042 184.76758236 -10.5290823 184.80609798 C-12.72048855 184.38031673 -12.72048855 184.38031673 -14.33322144 182.78419113 C-16.19687385 179.55483013 -16.10087879 177.21518569 -16.1081686 173.49254513 C-16.11355414 172.79986249 -16.11893968 172.10717985 -16.12448841 171.39350682 C-16.13879418 169.07276722 -16.13165804 166.75259591 -16.12454128 164.43183041 C-16.13024361 162.7677378 -16.13720734 161.10364912 -16.14533901 159.43956661 C-16.16330371 154.91876023 -16.16209548 150.39814761 -16.15639663 145.87731624 C-16.15330862 142.10254748 -16.15939311 138.32781616 -16.16543537 134.55305272 C-16.17949074 125.64575172 -16.17791176 116.7385466 -16.16653347 107.83124447 C-16.15505932 98.646028 -16.16911375 89.46110376 -16.19592994 80.27592582 C-16.21809585 72.38788204 -16.22472207 64.49992994 -16.21885353 56.61185724 C-16.2154839 51.90165801 -16.21789905 47.19164598 -16.23510456 42.48147297 C-16.25058512 38.04987975 -16.24660591 33.61871859 -16.22779942 29.18714237 C-16.22411617 27.56300978 -16.22721434 25.93884511 -16.2376852 24.31474209 C-16.25091632 22.09234571 -16.23933086 19.87137517 -16.22169399 17.64903927 C-16.22148471 16.40704864 -16.22127542 15.165058 -16.2210598 13.88543129 C-15.48718421 8.74666633 -13.77139991 4.92901839 -9.49794567 1.70201123 C-6.11848153 0.0938427 -3.73840781 0.00324489 0 0 Z "
		transform="translate(66.72048854827881,73.61968326568604)" />
	<path
		d="M0 0 C1.10171539 -0.0071553 2.20343079 -0.01431061 3.33853149 -0.02168274 C4.54273743 -0.02437164 5.74694336 -0.02706055 6.98764038 -0.02983093 C8.89562912 -0.03968773 8.89562912 -0.03968773 10.84216309 -0.04974365 C15.05779773 -0.0707434 19.27343255 -0.08114428 23.48910522 -0.09111023 C24.9438008 -0.09515973 26.39849618 -0.09927671 27.85319138 -0.10346031 C34.69077887 -0.1225054 41.52835563 -0.13673616 48.36596453 -0.14507228 C56.24108206 -0.15483338 64.11591766 -0.18112602 71.99093592 -0.22157317 C78.08878929 -0.25181012 84.1865622 -0.26654843 90.28448904 -0.26985329 C93.92116724 -0.27219573 97.55754406 -0.28104972 101.19414139 -0.30631447 C105.25829826 -0.33409363 109.32183187 -0.32974103 113.38607788 -0.32279968 C114.57813843 -0.33560974 115.77019897 -0.3484198 116.99838257 -0.36161804 C125.81992322 -0.30685916 132.50849233 1.46171321 139.88754272 6.33467102 C146.37074917 13.11942195 148.94093424 20.24816965 148.77816772 29.49873352 C148.10177423 38.31786413 144.11253104 44.31138092 137.57504272 50.14717102 C129.5093003 55.61981494 120.87997897 55.29616837 111.45443726 55.29243469 C109.62897369 55.29747261 109.62897369 55.29747261 107.76663208 55.3026123 C104.44009089 55.31046799 101.11361213 55.31378889 97.78706598 55.31442809 C95.70549282 55.31514058 93.62392613 55.31727865 91.54235458 55.31992531 C84.27118263 55.32916659 77.00002896 55.33326168 69.72885132 55.33247375 C62.96580069 55.33187315 56.20282987 55.34242463 49.43979943 55.35821742 C43.6204895 55.37131913 37.80120558 55.37665655 31.98188102 55.37601835 C28.51195139 55.37576415 25.04209275 55.37857191 21.57217789 55.3891964 C17.69956632 55.40073114 13.82706317 55.39611446 9.95443726 55.39009094 C8.81443268 55.39571045 7.6744281 55.40132996 6.49987793 55.40711975 C-3.2008065 55.36882419 -11.87321728 54.21615101 -19.31167603 47.42451477 C-24.99519399 41.43120337 -27.45033277 35.43928218 -27.86245728 27.20967102 C-27.58499472 19.10019721 -24.28601266 11.74773505 -18.42495728 6.14717102 C-12.32962935 2.12731318 -7.32578385 0.03272223 0 0 Z M-8.42495728 19.14717102 C-10.7697962 22.58626812 -11.43576508 24.53112612 -11.36245728 28.70967102 C-10.32415047 32.51679598 -9.24391675 34.40651597 -6.42495728 37.14717102 C-2.89175042 38.85989127 -0.06424324 39.39897402 3.84346008 39.40786743 C4.88501755 39.41495224 5.92657501 39.42203705 6.99969482 39.42933655 C8.13178375 39.42685913 9.26387268 39.42438171 10.43026733 39.42182922 C11.63080246 39.42694016 12.83133759 39.43205109 14.06825256 39.43731689 C17.35342584 39.44882294 20.63844238 39.45128845 23.92363048 39.4487536 C26.6696129 39.44768218 29.41557217 39.45257159 32.16154963 39.45735902 C38.64143937 39.46844531 45.12127114 39.46889652 51.60116577 39.46284485 C58.27851058 39.45680453 64.95564471 39.46911942 71.63295358 39.49041492 C77.37324169 39.50804661 83.11346282 39.51402983 88.85377699 39.51077718 C92.27897439 39.50896671 95.70402147 39.51157666 99.12919426 39.52549171 C102.9497695 39.53781861 106.76985624 39.53108637 110.59042358 39.51948547 C111.72048828 39.52712921 112.85055298 39.53477295 114.01486206 39.54264832 C119.59345097 39.50518104 123.81318304 39.40594431 128.57504272 36.14717102 C130.90842357 33.57446906 132.42471763 31.68048697 132.77035522 28.15498352 C132.51142971 24.11879165 131.78191909 22.39648357 129.13754272 19.20967102 C125.60064913 16.36290301 123.96790361 16.02090679 119.50880432 16.00672913 C118.43626907 16.00101898 117.36373383 15.99530884 116.25869751 15.98942566 C115.07684875 15.9883078 113.895 15.98718994 112.67733765 15.98603821 C111.43662003 15.9810733 110.1959024 15.9761084 108.91758728 15.97099304 C105.50837207 15.95887052 102.09921832 15.9514225 98.68998885 15.94698238 C96.56021786 15.94405249 94.43045226 15.93994782 92.30068398 15.93547821 C85.63769371 15.9218005 78.97471577 15.91213553 72.31171244 15.90827632 C64.61938618 15.90379655 56.9272377 15.88625374 49.2349655 15.85727572 C43.29009423 15.83565776 37.34527296 15.82557196 31.40036279 15.8242352 C27.84938592 15.82318713 24.29857611 15.81727919 20.74764061 15.79941559 C16.7853459 15.77987092 12.82327318 15.78422437 8.8609314 15.79072571 C7.68515533 15.78151093 6.50937927 15.77229614 5.29797363 15.76280212 C4.21697891 15.76837128 3.13598419 15.77394043 2.02223206 15.77967834 C1.08552264 15.77821178 0.14881323 15.77674522 -0.81628132 15.77523422 C-3.98521193 16.22705036 -5.84455525 17.27833855 -8.42495728 19.14717102 Z "
		transform="translate(195.42495727539063,315.8528289794922)" />
</svg>