<?xml version="1.0" standalone="no"?>
<!DOCTYPE svg PUBLIC "-//W3C//DTD SVG 20010904//EN"
 "http://www.w3.org/TR/2001/REC-SVG-20010904/DTD/svg10.dtd">
<svg version="1.0" xmlns="http://www.w3.org/2000/svg"
 width="512.000000pt" height="512.000000pt" viewBox="0 0 512.000000 512.000000"
 preserveAspectRatio="xMidYMid meet">
<g transform="translate(0.000000,512.000000) scale(0.100000,-0.100000)"
fill="#000000" stroke="none">
<path d="M2452 4718 c-37 -51 -84 -116 -105 -144 -45 -63 -49 -103 -11 -133
40 -31 63 -26 111 25 l43 47 -2 -603 -3 -603 -465 -268 c-730 -422 -749 -433
-757 -449 -5 -8 -10 -332 -13 -719 l-5 -703 -500 -289 c-275 -158 -501 -286
-503 -285 -2 2 4 21 12 41 23 53 20 80 -10 104 -30 24 -62 27 -87 9 -20 -15
-157 -314 -157 -344 0 -33 35 -62 82 -68 96 -13 240 -26 282 -26 51 0 86 27
86 67 0 33 -43 73 -77 73 -15 0 -33 4 -40 8 -12 7 970 582 994 582 6 0 267
-148 580 -329 645 -373 624 -361 656 -361 13 0 292 155 621 345 329 190 603
345 608 345 24 0 1006 -575 995 -582 -7 -4 -25 -8 -40 -8 -32 0 -77 -40 -77
-68 0 -11 9 -31 21 -46 17 -22 28 -26 72 -26 80 0 303 27 326 39 11 6 23 26
26 44 5 26 -7 61 -64 187 -39 85 -79 161 -88 168 -27 19 -62 14 -90 -14 -28
-28 -28 -52 1 -117 l17 -38 -23 15 c-13 7 -228 132 -478 276 -250 144 -472
273 -492 286 l-38 24 0 703 0 704 -22 20 c-13 11 -284 170 -603 353 -319 183
-586 338 -593 344 -9 9 -12 140 -10 611 l3 599 25 -37 c31 -46 71 -64 106 -49
30 14 49 53 40 84 -3 13 -51 85 -107 161 -99 136 -101 137 -140 137 -38 0 -41
-3 -107 -92z m649 -1850 c297 -171 536 -315 532 -319 -10 -9 -1025 -596 -1056
-610 -19 -8 -99 35 -552 296 -291 168 -533 309 -538 314 -4 4 234 148 530 319
296 171 539 311 541 312 2 0 246 -140 543 -312z m-1150 -759 l539 -311 0 -624
c0 -343 -3 -624 -6 -624 -3 0 -248 140 -545 311 l-539 311 0 624 c0 343 3 624
6 624 3 0 249 -140 545 -311z m1769 -313 l0 -623 -540 -312 c-296 -171 -542
-311 -545 -311 -3 0 -4 281 -3 626 l3 625 535 309 c294 170 538 310 543 310 4
0 7 -281 7 -624z" fill="#0D86FF"/>
</g>
</svg>